<svg width="1920" height="305" viewBox="0 0 1920 305" fill="none" xmlns="http://www.w3.org/2000/svg">
<path d="M281.464 7.99999H225.534C192.724 7.99999 166.034 34.86 166.034 67.5C166.034 100.31 192.724 127 225.534 127H281.464C314.274 127 340.964 100.31 340.964 67.5C340.964 34.86 314.274 7.99999 281.464 7.99999ZM225.534 120.03C196.464 120.03 173.004 96.57 173.004 67.5C173.004 38.6 196.464 15.14 225.534 15.14C254.434 15.14 277.894 38.6 277.894 67.5C277.894 96.57 254.434 120.03 225.534 120.03ZM509.129 122.07L453.029 10.04C452.519 8.84999 451.329 7.99999 449.969 7.99999H393.869C392.679 7.99999 391.659 8.67999 390.979 9.69999C390.979 9.87 390.979 9.87 390.979 9.87C390.809 9.87 390.809 10.04 390.809 10.04L334.879 122.07C334.199 123.09 334.369 124.45 335.049 125.47C335.559 126.49 336.749 127 337.939 127H505.899C507.089 127 508.279 126.49 508.959 125.47C509.639 124.45 509.639 123.09 509.129 122.07ZM343.549 120.03L393.869 19.39L444.359 120.03H343.549ZM674.405 120.03H568.155L592.635 71.07H646.525C648.395 71.07 649.925 69.54 649.925 67.5C649.925 65.63 648.395 64.1 646.525 64.1H596.205L620.685 15.14H646.525C648.395 15.14 649.925 13.44 649.925 11.57C649.925 9.69999 648.395 7.99999 646.525 7.99999H562.375C561.185 7.99999 559.995 8.84999 559.315 10.04L503.385 122.07C502.705 123.09 502.875 124.45 503.555 125.47C504.065 126.49 505.255 127 506.445 127H674.405C676.445 127 677.975 125.47 677.975 123.6C677.975 121.73 676.445 120.03 674.405 120.03ZM818.775 67.5L845.975 13.1C846.485 12.08 846.485 10.72 845.805 9.69999C845.125 8.67999 843.935 8.16999 842.745 8.16999H786.815H786.645C786.135 8.16999 785.625 8.34 785.285 8.51C785.115 8.67999 784.945 8.67999 784.775 8.67999C784.435 9.02 783.925 9.52999 783.755 10.04L756.725 64.1H734.285V11.57C734.285 9.69999 732.755 8.16999 730.885 8.16999C728.845 8.16999 727.315 9.69999 727.315 11.57V64.1H705.045L678.015 10.04C676.995 8.34 674.955 7.66 673.255 8.51C671.555 9.35999 670.875 11.4 671.725 13.1L698.925 67.67L671.725 122.07C670.875 123.77 671.555 125.81 673.255 126.66C674.955 127.51 676.995 126.83 678.015 125.13L705.045 71.07H727.315V123.6C727.315 125.47 728.845 127 730.885 127C732.755 127 734.285 125.47 734.285 123.6V71.07H756.725L783.755 125.13C783.925 125.81 784.435 126.15 784.945 126.49C785.455 126.83 786.135 127 786.645 127L786.815 127.17H842.745C844.105 127.17 845.125 126.49 845.805 125.47C846.485 124.45 846.485 123.09 845.975 122.07L818.775 67.5ZM1014.48 122.07L958.381 10.04C957.871 8.84999 956.681 7.99999 955.321 7.99999H899.221C898.031 7.99999 897.011 8.67999 896.331 9.69999C896.331 9.87 896.331 9.87 896.331 9.87C896.161 9.87 896.161 10.04 896.161 10.04L840.231 122.07C839.551 123.09 839.721 124.45 840.401 125.47C840.911 126.49 842.101 127 843.291 127H1011.25C1012.44 127 1013.63 126.49 1014.31 125.47C1014.99 124.45 1014.99 123.09 1014.48 122.07ZM848.901 120.03L899.221 19.39L949.711 120.03H848.901ZM1182.99 122.07L1126.89 10.04C1126.38 8.84999 1125.19 7.99999 1123.83 7.99999H1067.9C1066.54 7.99999 1065.52 8.67999 1064.84 9.69999C1064.84 9.87 1064.84 9.87 1064.84 9.87C1064.84 10.04 1064.67 10.04 1064.67 10.04L1036.79 65.97C1036.62 65.97 1036.62 65.97 1036.62 66.14L1008.74 122.07C1007.89 123.77 1008.57 125.81 1010.27 126.66C1011.97 127.51 1014.01 126.83 1015.03 125.13L1042.06 71.07H1093.74L1120.77 125.13C1120.94 125.81 1121.45 126.15 1121.96 126.49C1122.47 126.83 1123.15 127 1123.66 127H1123.83H1179.76C1181.12 127 1182.14 126.49 1182.82 125.47C1183.5 124.45 1183.5 123.09 1182.99 122.07ZM1045.46 64.1L1067.9 19.39L1090.17 64.1H1045.46ZM1416.24 122.07L1360.14 10.04C1359.63 8.84999 1358.44 7.99999 1357.08 7.99999H1300.98C1299.79 7.99999 1298.77 8.67999 1298.09 9.69999C1298.09 9.87 1298.09 9.87 1298.09 9.87C1297.92 9.87 1297.92 10.04 1297.92 10.04L1241.99 122.07C1241.31 123.09 1241.48 124.45 1242.16 125.47C1242.67 126.49 1243.86 127 1245.05 127H1413.01C1414.2 127 1415.39 126.49 1416.07 125.47C1416.75 124.45 1416.75 123.09 1416.24 122.07ZM1250.66 120.03L1300.98 19.39L1351.47 120.03H1250.66ZM1584.74 122.07L1528.64 10.04C1528.13 8.84999 1526.94 7.99999 1525.58 7.99999H1469.65C1468.29 7.99999 1467.27 8.67999 1466.59 9.69999C1466.59 9.87 1466.59 9.87 1466.59 9.87L1466.42 10.04L1410.49 122.07C1409.64 123.77 1410.32 125.81 1412.02 126.66C1413.72 127.51 1415.76 126.83 1416.78 125.13L1469.65 19.39L1522.52 125.13C1522.69 125.81 1523.2 126.15 1523.71 126.49C1524.22 126.83 1524.73 127 1525.41 127H1525.58H1581.51C1582.7 127 1583.89 126.49 1584.57 125.47C1585.25 124.45 1585.25 123.09 1584.74 122.07ZM1750.02 7.99999H1610.11C1592.77 7.99999 1578.66 22.28 1578.66 39.62C1578.66 55.09 1589.88 68.01 1604.67 70.56L1579 122.07C1578.15 123.77 1578.83 125.81 1580.53 126.66C1581.04 127 1581.55 127.17 1582.06 127.17C1583.42 127.17 1584.61 126.32 1585.29 125.13L1612.32 71.07H1690.52V123.6C1690.52 125.47 1692.22 127.17 1694.09 127.17H1750.02C1752.06 127.17 1753.59 125.47 1753.59 123.6V11.57C1753.59 9.69999 1752.06 7.99999 1750.02 7.99999ZM1690.52 64.1C1690.52 64.1 1610.11 64.1 1609.94 64.1C1596.51 64.1 1585.63 53.05 1585.63 39.62C1585.63 26.02 1596.51 15.14 1610.11 15.14H1690.52V64.1ZM521.109 215.5L548.309 161.1C548.819 160.08 548.819 158.72 548.139 157.7C547.459 156.68 546.269 156.17 545.079 156.17H489.149H488.979C488.469 156.17 487.959 156.34 487.619 156.51C487.449 156.68 487.279 156.68 487.109 156.68C486.769 157.02 486.259 157.53 486.089 158.04L458.889 212.1H380.689V159.57C380.689 157.7 378.989 156.17 377.119 156.17C375.249 156.17 373.719 157.7 373.719 159.57V271.6C373.719 273.47 375.249 275.17 377.119 275.17C378.989 275.17 380.689 273.47 380.689 271.6V219.07H458.889L486.089 273.13C486.259 273.81 486.769 274.32 487.279 274.49C487.789 274.83 488.299 275 488.979 275L489.149 275.17H545.079C546.269 275.17 547.459 274.49 548.139 273.47C548.819 272.45 548.819 271.09 548.309 270.07L521.109 215.5ZM716.815 270.07L660.715 158.04C660.205 156.85 659.015 156 657.655 156H601.725C600.365 156 599.345 156.68 598.665 157.7C598.665 157.87 598.665 157.87 598.665 157.87C598.665 158.04 598.495 158.04 598.495 158.04L570.615 213.97C570.445 213.97 570.445 213.97 570.445 214.14L542.565 270.07C541.715 271.77 542.395 273.81 544.095 274.66C545.795 275.51 547.835 274.83 548.855 273.13L575.885 219.07H627.565L654.595 273.13C654.765 273.81 655.275 274.15 655.785 274.49C656.295 274.83 656.975 275 657.485 275H657.655H713.585C714.945 275 715.965 274.49 716.645 273.47C717.325 272.45 717.325 271.09 716.815 270.07ZM579.285 212.1L601.725 167.39L623.995 212.1H579.285ZM858.121 215.5L885.321 161.1C885.831 160.08 885.831 158.72 885.151 157.7C884.471 156.68 883.281 156.17 882.091 156.17H826.161H825.991C825.481 156.17 824.971 156.34 824.631 156.51C824.461 156.68 824.291 156.68 824.121 156.68C823.781 157.02 823.271 157.53 823.101 158.04L796.071 212.1H773.631V159.57C773.631 157.7 772.101 156.17 770.231 156.17C768.191 156.17 766.661 157.7 766.661 159.57V212.1H744.391L717.361 158.04C716.341 156.34 714.301 155.66 712.601 156.51C710.901 157.36 710.221 159.4 711.071 161.1L738.271 215.67L711.071 270.07C710.221 271.77 710.901 273.81 712.601 274.66C714.301 275.51 716.341 274.83 717.361 273.13L744.391 219.07H766.661V271.6C766.661 273.47 768.191 275 770.231 275C772.101 275 773.631 273.47 773.631 271.6V219.07H796.071L823.101 273.13C823.271 273.81 823.781 274.15 824.291 274.49C824.801 274.83 825.481 275 825.991 275L826.161 275.17H882.091C883.451 275.17 884.471 274.49 885.151 273.47C885.831 272.45 885.831 271.09 885.321 270.07L858.121 215.5ZM1053.83 270.07L997.727 158.04C997.217 156.85 996.027 156 994.667 156H938.567C937.377 156 936.357 156.68 935.677 157.7C935.677 157.87 935.677 157.87 935.677 157.87C935.507 157.87 935.507 158.04 935.507 158.04L879.577 270.07C878.897 271.09 879.067 272.45 879.747 273.47C880.257 274.49 881.447 275 882.637 275H1050.6C1051.79 275 1052.98 274.49 1053.66 273.47C1054.34 272.45 1054.34 271.09 1053.83 270.07ZM888.247 268.03L938.567 167.39L989.057 268.03H888.247ZM1163.17 156H1107.24C1074.43 156 1047.74 182.86 1047.74 215.5C1047.74 248.31 1074.43 275 1107.24 275H1163.17C1195.98 275 1222.67 248.31 1222.67 215.5C1222.67 182.86 1195.98 156 1163.17 156ZM1107.24 268.03C1078.17 268.03 1054.71 244.57 1054.71 215.5C1054.71 186.6 1078.17 163.14 1107.24 163.14C1136.14 163.14 1159.6 186.6 1159.6 215.5C1159.6 244.57 1136.14 268.03 1107.24 268.03ZM1387.61 156H1219.65C1218.46 156 1217.27 156.68 1216.76 157.7C1216.08 158.72 1215.91 160.08 1216.59 161.1L1272.52 273.13C1273.2 274.32 1274.39 275 1275.58 275H1331.68C1332.19 275 1332.7 275 1333.21 274.66C1333.38 274.66 1333.38 274.49 1333.55 274.49C1333.89 274.15 1334.23 273.98 1334.4 273.64C1334.57 273.47 1334.57 273.47 1334.57 273.47C1334.74 273.3 1334.74 273.3 1334.74 273.13C1334.91 272.79 1335.08 272.45 1335.08 272.11C1335.08 271.94 1335.08 271.77 1335.08 271.6C1335.08 271.09 1335.08 270.58 1334.74 270.07L1281.36 163.14H1387.61C1389.65 163.14 1391.18 161.44 1391.18 159.57C1391.18 157.7 1389.65 156 1387.61 156ZM1486.41 156H1430.48C1397.67 156 1370.97 182.86 1370.97 215.5C1370.97 248.31 1397.67 275 1430.48 275H1486.41C1519.22 275 1545.91 248.31 1545.91 215.5C1545.91 182.86 1519.22 156 1486.41 156ZM1430.48 268.03C1401.41 268.03 1377.95 244.57 1377.95 215.5C1377.95 186.6 1401.41 163.14 1430.48 163.14C1459.38 163.14 1482.84 186.6 1482.84 215.5C1482.84 244.57 1459.38 268.03 1430.48 268.03Z" fill="#1F252D"/>
<g filter="url(#filter0_d_816_1784)">
<path d="M487.323 20H444.553C419.463 20 399.053 40.54 399.053 65.5C399.053 90.59 419.463 111 444.553 111H487.323C512.413 111 532.823 90.59 532.823 65.5C532.823 40.54 512.413 20 487.323 20ZM444.553 105.67C422.323 105.67 404.383 87.73 404.383 65.5C404.383 43.4 422.323 25.46 444.553 25.46C466.653 25.46 484.593 43.4 484.593 65.5C484.593 87.73 466.653 105.67 444.553 105.67ZM661.421 107.23L618.521 21.56C618.131 20.65 617.221 20 616.181 20H573.281C572.371 20 571.59 20.52 571.07 21.3C571.07 21.43 571.07 21.43 571.07 21.43C570.941 21.43 570.941 21.56 570.941 21.56L528.17 107.23C527.65 108.01 527.78 109.05 528.3 109.83C528.69 110.61 529.6 111 530.51 111H658.951C659.861 111 660.771 110.61 661.291 109.83C661.81 109.05 661.81 108.01 661.421 107.23ZM534.8 105.67L573.281 28.71L611.891 105.67H534.8ZM787.808 105.67H706.558L725.278 68.23H766.488C767.918 68.23 769.088 67.06 769.088 65.5C769.088 64.07 767.918 62.9 766.488 62.9H728.008L746.728 25.46H766.488C767.918 25.46 769.088 24.16 769.088 22.73C769.088 21.3 767.918 20 766.488 20H702.138C701.228 20 700.318 20.65 699.798 21.56L657.028 107.23C656.508 108.01 656.638 109.05 657.158 109.83C657.548 110.61 658.458 111 659.368 111H787.808C789.368 111 790.538 109.83 790.538 108.4C790.538 106.97 789.368 105.67 787.808 105.67ZM898.208 65.5L919.008 23.9C919.398 23.12 919.398 22.08 918.878 21.3C918.358 20.52 917.448 20.13 916.538 20.13H873.768H873.638C873.248 20.13 872.858 20.26 872.598 20.39C872.468 20.52 872.338 20.52 872.208 20.52C871.948 20.78 871.558 21.17 871.428 21.56L850.758 62.9H833.598V22.73C833.598 21.3 832.428 20.13 830.998 20.13C829.438 20.13 828.268 21.3 828.268 22.73V62.9H811.238L790.568 21.56C789.788 20.26 788.228 19.74 786.928 20.39C785.628 21.04 785.108 22.6 785.758 23.9L806.558 65.63L785.758 107.23C785.108 108.53 785.628 110.09 786.928 110.74C788.228 111.39 789.788 110.87 790.568 109.57L811.238 68.23H828.268V108.4C828.268 109.83 829.438 111 830.998 111C832.428 111 833.598 109.83 833.598 108.4V68.23H850.758L871.428 109.57C871.558 110.09 871.948 110.35 872.338 110.61C872.728 110.87 873.248 111 873.638 111L873.768 111.13H916.538C917.578 111.13 918.358 110.61 918.878 109.83C919.398 109.05 919.398 108.01 919.008 107.23L898.208 65.5ZM1047.87 107.23L1004.97 21.56C1004.58 20.65 1003.67 20 1002.63 20H959.726C958.816 20 958.036 20.52 957.516 21.3C957.516 21.43 957.516 21.43 957.516 21.43C957.386 21.43 957.386 21.56 957.386 21.56L914.616 107.23C914.096 108.01 914.226 109.05 914.746 109.83C915.136 110.61 916.046 111 916.956 111H1045.4C1046.31 111 1047.22 110.61 1047.74 109.83C1048.26 109.05 1048.26 108.01 1047.87 107.23ZM921.246 105.67L959.726 28.71L998.336 105.67H921.246ZM1176.72 107.23L1133.82 21.56C1133.43 20.65 1132.52 20 1131.48 20H1088.71C1087.67 20 1086.89 20.52 1086.37 21.3C1086.37 21.43 1086.37 21.43 1086.37 21.43C1086.37 21.56 1086.24 21.56 1086.24 21.56L1064.92 64.33C1064.79 64.33 1064.79 64.33 1064.79 64.46L1043.47 107.23C1042.82 108.53 1043.34 110.09 1044.64 110.74C1045.94 111.39 1047.5 110.87 1048.28 109.57L1068.95 68.23H1108.47L1129.14 109.57C1129.27 110.09 1129.66 110.35 1130.05 110.61C1130.44 110.87 1130.96 111 1131.35 111H1131.48H1174.25C1175.29 111 1176.07 110.61 1176.59 109.83C1177.11 109.05 1177.11 108.01 1176.72 107.23ZM1071.55 62.9L1088.71 28.71L1105.74 62.9H1071.55ZM1355.09 107.23L1312.19 21.56C1311.8 20.65 1310.89 20 1309.85 20H1266.95C1266.04 20 1265.26 20.52 1264.74 21.3C1264.74 21.43 1264.74 21.43 1264.74 21.43C1264.61 21.43 1264.61 21.56 1264.61 21.56L1221.84 107.23C1221.32 108.01 1221.45 109.05 1221.97 109.83C1222.36 110.61 1223.27 111 1224.18 111H1352.62C1353.53 111 1354.44 110.61 1354.96 109.83C1355.48 109.05 1355.48 108.01 1355.09 107.23ZM1228.47 105.67L1266.95 28.71L1305.56 105.67H1228.47ZM1483.95 107.23L1441.05 21.56C1440.66 20.65 1439.75 20 1438.71 20H1395.94C1394.9 20 1394.12 20.52 1393.6 21.3C1393.6 21.43 1393.6 21.43 1393.6 21.43L1393.47 21.56L1350.7 107.23C1350.05 108.53 1350.57 110.09 1351.87 110.74C1353.17 111.39 1354.73 110.87 1355.51 109.57L1395.94 28.71L1436.37 109.57C1436.5 110.09 1436.89 110.35 1437.28 110.61C1437.67 110.87 1438.06 111 1438.58 111H1438.71H1481.48C1482.39 111 1483.3 110.61 1483.82 109.83C1484.34 109.05 1484.34 108.01 1483.95 107.23ZM1610.34 20H1503.35C1490.09 20 1479.3 30.92 1479.3 44.18C1479.3 56.01 1487.88 65.89 1499.19 67.84L1479.56 107.23C1478.91 108.53 1479.43 110.09 1480.73 110.74C1481.12 111 1481.51 111.13 1481.9 111.13C1482.94 111.13 1483.85 110.48 1484.37 109.57L1505.04 68.23H1564.84V108.4C1564.84 109.83 1566.14 111.13 1567.57 111.13H1610.34C1611.9 111.13 1613.07 109.83 1613.07 108.4V22.73C1613.07 21.3 1611.9 20 1610.34 20ZM1564.84 62.9C1564.84 62.9 1503.35 62.9 1503.22 62.9C1492.95 62.9 1484.63 54.45 1484.63 44.18C1484.63 33.78 1492.95 25.46 1503.35 25.46H1564.84V62.9ZM670.581 178.5L691.381 136.9C691.771 136.12 691.771 135.08 691.251 134.3C690.731 133.52 689.821 133.13 688.911 133.13H646.141H646.011C645.621 133.13 645.231 133.26 644.971 133.39C644.841 133.52 644.711 133.52 644.581 133.52C644.321 133.78 643.931 134.17 643.801 134.56L623.001 175.9H563.201V135.73C563.201 134.3 561.901 133.13 560.471 133.13C559.041 133.13 557.871 134.3 557.871 135.73V221.4C557.871 222.83 559.041 224.13 560.471 224.13C561.901 224.13 563.201 222.83 563.201 221.4V181.23H623.001L643.801 222.57C643.931 223.09 644.321 223.48 644.711 223.61C645.101 223.87 645.491 224 646.011 224L646.141 224.13H688.911C689.821 224.13 690.731 223.61 691.251 222.83C691.771 222.05 691.771 221.01 691.381 220.23L670.581 178.5ZM820.239 220.23L777.339 134.56C776.949 133.65 776.039 133 774.999 133H732.229C731.189 133 730.409 133.52 729.889 134.3C729.889 134.43 729.889 134.43 729.889 134.43C729.889 134.56 729.759 134.56 729.759 134.56L708.439 177.33C708.309 177.33 708.309 177.33 708.309 177.46L686.989 220.23C686.339 221.53 686.859 223.09 688.159 223.74C689.459 224.39 691.019 223.87 691.799 222.57L712.469 181.23H751.989L772.659 222.57C772.789 223.09 773.179 223.35 773.569 223.61C773.959 223.87 774.479 224 774.869 224H774.999H817.769C818.809 224 819.589 223.61 820.109 222.83C820.629 222.05 820.629 221.01 820.239 220.23ZM715.069 175.9L732.229 141.71L749.259 175.9H715.069ZM928.296 178.5L949.096 136.9C949.486 136.12 949.486 135.08 948.966 134.3C948.446 133.52 947.536 133.13 946.626 133.13H903.856H903.726C903.336 133.13 902.946 133.26 902.686 133.39C902.556 133.52 902.426 133.52 902.296 133.52C902.036 133.78 901.646 134.17 901.516 134.56L880.846 175.9H863.686V135.73C863.686 134.3 862.516 133.13 861.086 133.13C859.526 133.13 858.356 134.3 858.356 135.73V175.9H841.326L820.656 134.56C819.876 133.26 818.316 132.74 817.016 133.39C815.716 134.04 815.196 135.6 815.846 136.9L836.646 178.63L815.846 220.23C815.196 221.53 815.716 223.09 817.016 223.74C818.316 224.39 819.876 223.87 820.656 222.57L841.326 181.23H858.356V221.4C858.356 222.83 859.526 224 861.086 224C862.516 224 863.686 222.83 863.686 221.4V181.23H880.846L901.516 222.57C901.646 223.09 902.036 223.35 902.426 223.61C902.816 223.87 903.336 224 903.726 224L903.856 224.13H946.626C947.666 224.13 948.446 223.61 948.966 222.83C949.486 222.05 949.486 221.01 949.096 220.23L928.296 178.5ZM1077.95 220.23L1035.05 134.56C1034.66 133.65 1033.75 133 1032.71 133H989.814C988.904 133 988.124 133.52 987.604 134.3C987.604 134.43 987.604 134.43 987.604 134.43C987.474 134.43 987.474 134.56 987.474 134.56L944.704 220.23C944.184 221.01 944.314 222.05 944.834 222.83C945.224 223.61 946.134 224 947.044 224H1075.48C1076.39 224 1077.3 223.61 1077.82 222.83C1078.34 222.05 1078.34 221.01 1077.95 220.23ZM951.334 218.67L989.814 141.71L1028.42 218.67H951.334ZM1161.57 133H1118.8C1093.71 133 1073.3 153.54 1073.3 178.5C1073.3 203.59 1093.71 224 1118.8 224H1161.57C1186.66 224 1207.07 203.59 1207.07 178.5C1207.07 153.54 1186.66 133 1161.57 133ZM1118.8 218.67C1096.57 218.67 1078.63 200.73 1078.63 178.5C1078.63 156.4 1096.57 138.46 1118.8 138.46C1140.9 138.46 1158.84 156.4 1158.84 178.5C1158.84 200.73 1140.9 218.67 1118.8 218.67ZM1333.2 133H1204.76C1203.85 133 1202.94 133.52 1202.55 134.3C1202.03 135.08 1201.9 136.12 1202.42 136.9L1245.19 222.57C1245.71 223.48 1246.62 224 1247.53 224H1290.43C1290.82 224 1291.21 224 1291.6 223.74C1291.73 223.74 1291.73 223.61 1291.86 223.61C1292.12 223.35 1292.38 223.22 1292.51 222.96C1292.64 222.83 1292.64 222.83 1292.64 222.83C1292.77 222.7 1292.77 222.7 1292.77 222.57C1292.9 222.31 1293.03 222.05 1293.03 221.79C1293.03 221.66 1293.03 221.53 1293.03 221.4C1293.03 221.01 1293.03 220.62 1292.77 220.23L1251.95 138.46H1333.2C1334.76 138.46 1335.93 137.16 1335.93 135.73C1335.93 134.3 1334.76 133 1333.2 133ZM1408.75 133H1365.98C1340.89 133 1320.48 153.54 1320.48 178.5C1320.48 203.59 1340.89 224 1365.98 224H1408.75C1433.84 224 1454.25 203.59 1454.25 178.5C1454.25 153.54 1433.84 133 1408.75 133ZM1365.98 218.67C1343.75 218.67 1325.81 200.73 1325.81 178.5C1325.81 156.4 1343.75 138.46 1365.98 138.46C1388.08 138.46 1406.02 156.4 1406.02 178.5C1406.02 200.73 1388.08 218.67 1365.98 218.67Z" fill="white"/>
</g>
<g filter="url(#filter1_f_816_1784)">
<path d="M483.119 20H440.349C415.259 20 394.849 40.54 394.849 65.5C394.849 90.59 415.259 111 440.349 111H483.119C508.209 111 528.619 90.59 528.619 65.5C528.619 40.54 508.209 20 483.119 20ZM440.349 105.67C418.119 105.67 400.179 87.73 400.179 65.5C400.179 43.4 418.119 25.46 440.349 25.46C462.449 25.46 480.389 43.4 480.389 65.5C480.389 87.73 462.449 105.67 440.349 105.67ZM657.217 107.23L614.317 21.56C613.927 20.65 613.017 20 611.977 20H569.077C568.167 20 567.387 20.52 566.867 21.3C566.867 21.43 566.867 21.43 566.867 21.43C566.737 21.43 566.737 21.56 566.737 21.56L523.967 107.23C523.447 108.01 523.577 109.05 524.097 109.83C524.487 110.61 525.397 111 526.307 111H654.747C655.657 111 656.567 110.61 657.087 109.83C657.607 109.05 657.607 108.01 657.217 107.23ZM530.597 105.67L569.077 28.71L607.687 105.67H530.597ZM783.604 105.67H702.354L721.074 68.23H762.284C763.714 68.23 764.884 67.06 764.884 65.5C764.884 64.07 763.714 62.9 762.284 62.9H723.804L742.524 25.46H762.284C763.714 25.46 764.884 24.16 764.884 22.73C764.884 21.3 763.714 20 762.284 20H697.934C697.024 20 696.114 20.65 695.594 21.56L652.824 107.23C652.304 108.01 652.434 109.05 652.954 109.83C653.344 110.61 654.254 111 655.164 111H783.604C785.164 111 786.334 109.83 786.334 108.4C786.334 106.97 785.164 105.67 783.604 105.67ZM894.005 65.5L914.805 23.9C915.195 23.12 915.195 22.08 914.675 21.3C914.155 20.52 913.245 20.13 912.335 20.13H869.565H869.435C869.045 20.13 868.655 20.26 868.395 20.39C868.265 20.52 868.135 20.52 868.005 20.52C867.745 20.78 867.355 21.17 867.225 21.56L846.555 62.9H829.395V22.73C829.395 21.3 828.225 20.13 826.795 20.13C825.235 20.13 824.065 21.3 824.065 22.73V62.9H807.035L786.365 21.56C785.585 20.26 784.025 19.74 782.725 20.39C781.425 21.04 780.905 22.6 781.555 23.9L802.355 65.63L781.555 107.23C780.905 108.53 781.425 110.09 782.725 110.74C784.025 111.39 785.585 110.87 786.365 109.57L807.035 68.23H824.065V108.4C824.065 109.83 825.235 111 826.795 111C828.225 111 829.395 109.83 829.395 108.4V68.23H846.555L867.225 109.57C867.355 110.09 867.745 110.35 868.135 110.61C868.525 110.87 869.045 111 869.435 111L869.565 111.13H912.335C913.375 111.13 914.155 110.61 914.675 109.83C915.195 109.05 915.195 108.01 914.805 107.23L894.005 65.5ZM1043.66 107.23L1000.76 21.56C1000.37 20.65 999.462 20 998.422 20H955.522C954.612 20 953.832 20.52 953.312 21.3C953.312 21.43 953.312 21.43 953.312 21.43C953.182 21.43 953.182 21.56 953.182 21.56L910.412 107.23C909.892 108.01 910.022 109.05 910.542 109.83C910.932 110.61 911.842 111 912.752 111H1041.19C1042.1 111 1043.01 110.61 1043.53 109.83C1044.05 109.05 1044.05 108.01 1043.66 107.23ZM917.042 105.67L955.522 28.71L994.132 105.67H917.042ZM1172.52 107.23L1129.62 21.56C1129.23 20.65 1128.32 20 1127.28 20H1084.51C1083.47 20 1082.69 20.52 1082.17 21.3C1082.17 21.43 1082.17 21.43 1082.17 21.43C1082.17 21.56 1082.04 21.56 1082.04 21.56L1060.72 64.33C1060.59 64.33 1060.59 64.33 1060.59 64.46L1039.27 107.23C1038.62 108.53 1039.14 110.09 1040.44 110.74C1041.74 111.39 1043.3 110.87 1044.08 109.57L1064.75 68.23H1104.27L1124.94 109.57C1125.07 110.09 1125.46 110.35 1125.85 110.61C1126.24 110.87 1126.76 111 1127.15 111H1127.28H1170.05C1171.09 111 1171.87 110.61 1172.39 109.83C1172.91 109.05 1172.91 108.01 1172.52 107.23ZM1067.35 62.9L1084.51 28.71L1101.54 62.9H1067.35ZM1350.89 107.23L1307.99 21.56C1307.6 20.65 1306.69 20 1305.65 20H1262.75C1261.84 20 1261.06 20.52 1260.54 21.3C1260.54 21.43 1260.54 21.43 1260.54 21.43C1260.41 21.43 1260.41 21.56 1260.41 21.56L1217.64 107.23C1217.12 108.01 1217.25 109.05 1217.77 109.83C1218.16 110.61 1219.07 111 1219.98 111H1348.42C1349.33 111 1350.24 110.61 1350.76 109.83C1351.28 109.05 1351.28 108.01 1350.89 107.23ZM1224.27 105.67L1262.75 28.71L1301.36 105.67H1224.27ZM1479.75 107.23L1436.85 21.56C1436.46 20.65 1435.55 20 1434.51 20H1391.74C1390.7 20 1389.92 20.52 1389.4 21.3C1389.4 21.43 1389.4 21.43 1389.4 21.43L1389.27 21.56L1346.5 107.23C1345.85 108.53 1346.37 110.09 1347.67 110.74C1348.97 111.39 1350.53 110.87 1351.31 109.57L1391.74 28.71L1432.17 109.57C1432.3 110.09 1432.69 110.35 1433.08 110.61C1433.47 110.87 1433.86 111 1434.38 111H1434.51H1477.28C1478.19 111 1479.1 110.61 1479.62 109.83C1480.14 109.05 1480.14 108.01 1479.75 107.23ZM1606.13 20H1499.14C1485.88 20 1475.09 30.92 1475.09 44.18C1475.09 56.01 1483.67 65.89 1494.98 67.84L1475.35 107.23C1474.7 108.53 1475.22 110.09 1476.52 110.74C1476.91 111 1477.3 111.13 1477.69 111.13C1478.73 111.13 1479.64 110.48 1480.16 109.57L1500.83 68.23H1560.63V108.4C1560.63 109.83 1561.93 111.13 1563.36 111.13H1606.13C1607.69 111.13 1608.86 109.83 1608.86 108.4V22.73C1608.86 21.3 1607.69 20 1606.13 20ZM1560.63 62.9C1560.63 62.9 1499.14 62.9 1499.01 62.9C1488.74 62.9 1480.42 54.45 1480.42 44.18C1480.42 33.78 1488.74 25.46 1499.14 25.46H1560.63V62.9ZM666.378 178.5L687.178 136.9C687.568 136.12 687.568 135.08 687.048 134.3C686.528 133.52 685.618 133.13 684.708 133.13H641.938H641.808C641.418 133.13 641.028 133.26 640.768 133.39C640.638 133.52 640.508 133.52 640.378 133.52C640.118 133.78 639.728 134.17 639.598 134.56L618.798 175.9H558.998V135.73C558.998 134.3 557.698 133.13 556.268 133.13C554.838 133.13 553.668 134.3 553.668 135.73V221.4C553.668 222.83 554.838 224.13 556.268 224.13C557.698 224.13 558.998 222.83 558.998 221.4V181.23H618.798L639.598 222.57C639.728 223.09 640.118 223.48 640.508 223.61C640.898 223.87 641.288 224 641.808 224L641.938 224.13H684.708C685.618 224.13 686.528 223.61 687.048 222.83C687.568 222.05 687.568 221.01 687.178 220.23L666.378 178.5ZM816.035 220.23L773.135 134.56C772.745 133.65 771.835 133 770.795 133H728.025C726.985 133 726.205 133.52 725.685 134.3C725.685 134.43 725.685 134.43 725.685 134.43C725.685 134.56 725.555 134.56 725.555 134.56L704.235 177.33C704.105 177.33 704.105 177.33 704.105 177.46L682.785 220.23C682.135 221.53 682.655 223.09 683.955 223.74C685.255 224.39 686.815 223.87 687.595 222.57L708.265 181.23H747.785L768.455 222.57C768.585 223.09 768.975 223.35 769.365 223.61C769.755 223.87 770.275 224 770.665 224H770.795H813.565C814.605 224 815.385 223.61 815.905 222.83C816.425 222.05 816.425 221.01 816.035 220.23ZM710.865 175.9L728.025 141.71L745.055 175.9H710.865ZM924.092 178.5L944.892 136.9C945.282 136.12 945.282 135.08 944.762 134.3C944.242 133.52 943.332 133.13 942.422 133.13H899.652H899.522C899.132 133.13 898.742 133.26 898.482 133.39C898.352 133.52 898.222 133.52 898.092 133.52C897.832 133.78 897.442 134.17 897.312 134.56L876.642 175.9H859.482V135.73C859.482 134.3 858.312 133.13 856.882 133.13C855.322 133.13 854.152 134.3 854.152 135.73V175.9H837.122L816.452 134.56C815.672 133.26 814.112 132.74 812.812 133.39C811.512 134.04 810.992 135.6 811.642 136.9L832.442 178.63L811.642 220.23C810.992 221.53 811.512 223.09 812.812 223.74C814.112 224.39 815.672 223.87 816.452 222.57L837.122 181.23H854.152V221.4C854.152 222.83 855.322 224 856.882 224C858.312 224 859.482 222.83 859.482 221.4V181.23H876.642L897.312 222.57C897.442 223.09 897.832 223.35 898.222 223.61C898.612 223.87 899.132 224 899.522 224L899.652 224.13H942.422C943.462 224.13 944.242 223.61 944.762 222.83C945.282 222.05 945.282 221.01 944.892 220.23L924.092 178.5ZM1073.75 220.23L1030.85 134.56C1030.46 133.65 1029.55 133 1028.51 133H985.61C984.7 133 983.92 133.52 983.4 134.3C983.4 134.43 983.4 134.43 983.4 134.43C983.27 134.43 983.27 134.56 983.27 134.56L940.5 220.23C939.98 221.01 940.11 222.05 940.63 222.83C941.02 223.61 941.93 224 942.84 224H1071.28C1072.19 224 1073.1 223.61 1073.62 222.83C1074.14 222.05 1074.14 221.01 1073.75 220.23ZM947.13 218.67L985.61 141.71L1024.22 218.67H947.13ZM1157.37 133H1114.6C1089.51 133 1069.1 153.54 1069.1 178.5C1069.1 203.59 1089.51 224 1114.6 224H1157.37C1182.46 224 1202.87 203.59 1202.87 178.5C1202.87 153.54 1182.46 133 1157.37 133ZM1114.6 218.67C1092.37 218.67 1074.43 200.73 1074.43 178.5C1074.43 156.4 1092.37 138.46 1114.6 138.46C1136.7 138.46 1154.64 156.4 1154.64 178.5C1154.64 200.73 1136.7 218.67 1114.6 218.67ZM1328.99 133H1200.55C1199.64 133 1198.73 133.52 1198.34 134.3C1197.82 135.08 1197.69 136.12 1198.21 136.9L1240.98 222.57C1241.5 223.48 1242.41 224 1243.32 224H1286.22C1286.61 224 1287 224 1287.39 223.74C1287.52 223.74 1287.52 223.61 1287.65 223.61C1287.91 223.35 1288.17 223.22 1288.3 222.96C1288.43 222.83 1288.43 222.83 1288.43 222.83C1288.56 222.7 1288.56 222.7 1288.56 222.57C1288.69 222.31 1288.82 222.05 1288.82 221.79C1288.82 221.66 1288.82 221.53 1288.82 221.4C1288.82 221.01 1288.82 220.62 1288.56 220.23L1247.74 138.46H1328.99C1330.55 138.46 1331.72 137.16 1331.72 135.73C1331.72 134.3 1330.55 133 1328.99 133ZM1404.55 133H1361.78C1336.69 133 1316.27 153.54 1316.27 178.5C1316.27 203.59 1336.69 224 1361.78 224H1404.55C1429.64 224 1450.05 203.59 1450.05 178.5C1450.05 153.54 1429.64 133 1404.55 133ZM1361.78 218.67C1339.55 218.67 1321.61 200.73 1321.61 178.5C1321.61 156.4 1339.55 138.46 1361.78 138.46C1383.88 138.46 1401.82 156.4 1401.82 178.5C1401.82 200.73 1383.88 218.67 1361.78 218.67Z" fill="#D1C12B"/>
</g>
<path d="M491.527 20H448.757C423.667 20 403.257 40.54 403.257 65.5C403.257 90.59 423.667 111 448.757 111H491.527C516.617 111 537.027 90.59 537.027 65.5C537.027 40.54 516.617 20 491.527 20ZM448.757 105.67C426.527 105.67 408.587 87.73 408.587 65.5C408.587 43.4 426.527 25.46 448.757 25.46C470.857 25.46 488.797 43.4 488.797 65.5C488.797 87.73 470.857 105.67 448.757 105.67ZM665.624 107.23L622.724 21.56C622.334 20.65 621.424 20 620.384 20H577.484C576.574 20 575.794 20.52 575.274 21.3C575.274 21.43 575.274 21.43 575.274 21.43C575.144 21.43 575.144 21.56 575.144 21.56L532.374 107.23C531.854 108.01 531.984 109.05 532.504 109.83C532.894 110.61 533.804 111 534.714 111H663.154C664.064 111 664.974 110.61 665.494 109.83C666.014 109.05 666.014 108.01 665.624 107.23ZM539.004 105.67L577.484 28.71L616.094 105.67H539.004ZM792.012 105.67H710.762L729.482 68.23H770.692C772.122 68.23 773.292 67.06 773.292 65.5C773.292 64.07 772.122 62.9 770.692 62.9H732.212L750.932 25.46H770.692C772.122 25.46 773.292 24.16 773.292 22.73C773.292 21.3 772.122 20 770.692 20H706.342C705.432 20 704.522 20.65 704.002 21.56L661.232 107.23C660.712 108.01 660.842 109.05 661.362 109.83C661.752 110.61 662.662 111 663.572 111H792.012C793.572 111 794.742 109.83 794.742 108.4C794.742 106.97 793.572 105.67 792.012 105.67ZM902.412 65.5L923.212 23.9C923.602 23.12 923.602 22.08 923.082 21.3C922.562 20.52 921.652 20.13 920.742 20.13H877.972H877.842C877.452 20.13 877.062 20.26 876.802 20.39C876.672 20.52 876.542 20.52 876.412 20.52C876.152 20.78 875.762 21.17 875.632 21.56L854.962 62.9H837.802V22.73C837.802 21.3 836.632 20.13 835.202 20.13C833.642 20.13 832.472 21.3 832.472 22.73V62.9H815.442L794.772 21.56C793.992 20.26 792.432 19.74 791.132 20.39C789.832 21.04 789.312 22.6 789.962 23.9L810.762 65.63L789.962 107.23C789.312 108.53 789.832 110.09 791.132 110.74C792.432 111.39 793.992 110.87 794.772 109.57L815.442 68.23H832.472V108.4C832.472 109.83 833.642 111 835.202 111C836.632 111 837.802 109.83 837.802 108.4V68.23H854.962L875.632 109.57C875.762 110.09 876.152 110.35 876.542 110.61C876.932 110.87 877.452 111 877.842 111L877.972 111.13H920.742C921.782 111.13 922.562 110.61 923.082 109.83C923.602 109.05 923.602 108.01 923.212 107.23L902.412 65.5ZM1052.07 107.23L1009.17 21.56C1008.78 20.65 1007.87 20 1006.83 20H963.93C963.02 20 962.24 20.52 961.72 21.3C961.72 21.43 961.72 21.43 961.72 21.43C961.59 21.43 961.59 21.56 961.59 21.56L918.82 107.23C918.3 108.01 918.43 109.05 918.95 109.83C919.34 110.61 920.25 111 921.16 111H1049.6C1050.51 111 1051.42 110.61 1051.94 109.83C1052.46 109.05 1052.46 108.01 1052.07 107.23ZM925.45 105.67L963.93 28.71L1002.54 105.67H925.45ZM1180.93 107.23L1138.03 21.56C1137.64 20.65 1136.73 20 1135.69 20H1092.92C1091.88 20 1091.1 20.52 1090.58 21.3C1090.58 21.43 1090.58 21.43 1090.58 21.43C1090.58 21.56 1090.45 21.56 1090.45 21.56L1069.13 64.33C1069 64.33 1069 64.33 1069 64.46L1047.68 107.23C1047.03 108.53 1047.55 110.09 1048.85 110.74C1050.15 111.39 1051.71 110.87 1052.49 109.57L1073.16 68.23H1112.68L1133.35 109.57C1133.48 110.09 1133.87 110.35 1134.26 110.61C1134.65 110.87 1135.17 111 1135.56 111H1135.69H1178.46C1179.5 111 1180.28 110.61 1180.8 109.83C1181.32 109.05 1181.32 108.01 1180.93 107.23ZM1075.76 62.9L1092.92 28.71L1109.95 62.9H1075.76ZM1359.3 107.23L1316.4 21.56C1316.01 20.65 1315.1 20 1314.06 20H1271.16C1270.25 20 1269.47 20.52 1268.95 21.3C1268.95 21.43 1268.95 21.43 1268.95 21.43C1268.82 21.43 1268.82 21.56 1268.82 21.56L1226.05 107.23C1225.53 108.01 1225.66 109.05 1226.18 109.83C1226.57 110.61 1227.48 111 1228.39 111H1356.83C1357.74 111 1358.65 110.61 1359.17 109.83C1359.69 109.05 1359.69 108.01 1359.3 107.23ZM1232.68 105.67L1271.16 28.71L1309.77 105.67H1232.68ZM1488.15 107.23L1445.25 21.56C1444.86 20.65 1443.95 20 1442.91 20H1400.14C1399.1 20 1398.32 20.52 1397.8 21.3C1397.8 21.43 1397.8 21.43 1397.8 21.43L1397.67 21.56L1354.9 107.23C1354.25 108.53 1354.77 110.09 1356.07 110.74C1357.37 111.39 1358.93 110.87 1359.71 109.57L1400.14 28.71L1440.57 109.57C1440.7 110.09 1441.09 110.35 1441.48 110.61C1441.87 110.87 1442.26 111 1442.78 111H1442.91H1485.68C1486.59 111 1487.5 110.61 1488.02 109.83C1488.54 109.05 1488.54 108.01 1488.15 107.23ZM1614.54 20H1507.55C1494.29 20 1483.5 30.92 1483.5 44.18C1483.5 56.01 1492.08 65.89 1503.39 67.84L1483.76 107.23C1483.11 108.53 1483.63 110.09 1484.93 110.74C1485.32 111 1485.71 111.13 1486.1 111.13C1487.14 111.13 1488.05 110.48 1488.57 109.57L1509.24 68.23H1569.04V108.4C1569.04 109.83 1570.34 111.13 1571.77 111.13H1614.54C1616.1 111.13 1617.27 109.83 1617.27 108.4V22.73C1617.27 21.3 1616.1 20 1614.54 20ZM1569.04 62.9C1569.04 62.9 1507.55 62.9 1507.42 62.9C1497.15 62.9 1488.83 54.45 1488.83 44.18C1488.83 33.78 1497.15 25.46 1507.55 25.46H1569.04V62.9ZM674.785 178.5L695.585 136.9C695.975 136.12 695.975 135.08 695.455 134.3C694.935 133.52 694.025 133.13 693.115 133.13H650.345H650.215C649.825 133.13 649.435 133.26 649.175 133.39C649.045 133.52 648.915 133.52 648.785 133.52C648.525 133.78 648.135 134.17 648.005 134.56L627.205 175.9H567.405V135.73C567.405 134.3 566.105 133.13 564.675 133.13C563.245 133.13 562.075 134.3 562.075 135.73V221.4C562.075 222.83 563.245 224.13 564.675 224.13C566.105 224.13 567.405 222.83 567.405 221.4V181.23H627.205L648.005 222.57C648.135 223.09 648.525 223.48 648.915 223.61C649.305 223.87 649.695 224 650.215 224L650.345 224.13H693.115C694.025 224.13 694.935 223.61 695.455 222.83C695.975 222.05 695.975 221.01 695.585 220.23L674.785 178.5ZM824.443 220.23L781.543 134.56C781.153 133.65 780.243 133 779.203 133H736.433C735.393 133 734.613 133.52 734.093 134.3C734.093 134.43 734.093 134.43 734.093 134.43C734.093 134.56 733.963 134.56 733.963 134.56L712.643 177.33C712.513 177.33 712.513 177.33 712.513 177.46L691.193 220.23C690.543 221.53 691.063 223.09 692.363 223.74C693.663 224.39 695.223 223.87 696.003 222.57L716.673 181.23H756.193L776.863 222.57C776.993 223.09 777.383 223.35 777.773 223.61C778.163 223.87 778.683 224 779.073 224H779.203H821.973C823.013 224 823.793 223.61 824.313 222.83C824.833 222.05 824.833 221.01 824.443 220.23ZM719.273 175.9L736.433 141.71L753.463 175.9H719.273ZM932.5 178.5L953.3 136.9C953.69 136.12 953.69 135.08 953.17 134.3C952.65 133.52 951.74 133.13 950.83 133.13H908.06H907.93C907.54 133.13 907.15 133.26 906.89 133.39C906.76 133.52 906.63 133.52 906.5 133.52C906.24 133.78 905.85 134.17 905.72 134.56L885.05 175.9H867.89V135.73C867.89 134.3 866.72 133.13 865.29 133.13C863.73 133.13 862.56 134.3 862.56 135.73V175.9H845.53L824.86 134.56C824.08 133.26 822.52 132.74 821.22 133.39C819.92 134.04 819.4 135.6 820.05 136.9L840.85 178.63L820.05 220.23C819.4 221.53 819.92 223.09 821.22 223.74C822.52 224.39 824.08 223.87 824.86 222.57L845.53 181.23H862.56V221.4C862.56 222.83 863.73 224 865.29 224C866.72 224 867.89 222.83 867.89 221.4V181.23H885.05L905.72 222.57C905.85 223.09 906.24 223.35 906.63 223.61C907.02 223.87 907.54 224 907.93 224L908.06 224.13H950.83C951.87 224.13 952.65 223.61 953.17 222.83C953.69 222.05 953.69 221.01 953.3 220.23L932.5 178.5ZM1082.16 220.23L1039.26 134.56C1038.87 133.65 1037.96 133 1036.92 133H994.018C993.108 133 992.328 133.52 991.808 134.3C991.808 134.43 991.808 134.43 991.808 134.43C991.678 134.43 991.678 134.56 991.678 134.56L948.908 220.23C948.388 221.01 948.518 222.05 949.038 222.83C949.428 223.61 950.338 224 951.248 224H1079.69C1080.6 224 1081.51 223.61 1082.03 222.83C1082.55 222.05 1082.55 221.01 1082.16 220.23ZM955.538 218.67L994.018 141.71L1032.63 218.67H955.538ZM1165.77 133H1123C1097.91 133 1077.5 153.54 1077.5 178.5C1077.5 203.59 1097.91 224 1123 224H1165.77C1190.86 224 1211.27 203.59 1211.27 178.5C1211.27 153.54 1190.86 133 1165.77 133ZM1123 218.67C1100.77 218.67 1082.83 200.73 1082.83 178.5C1082.83 156.4 1100.77 138.46 1123 138.46C1145.1 138.46 1163.04 156.4 1163.04 178.5C1163.04 200.73 1145.1 218.67 1123 218.67ZM1337.4 133H1208.96C1208.05 133 1207.14 133.52 1206.75 134.3C1206.23 135.08 1206.1 136.12 1206.62 136.9L1249.39 222.57C1249.91 223.48 1250.82 224 1251.73 224H1294.63C1295.02 224 1295.41 224 1295.8 223.74C1295.93 223.74 1295.93 223.61 1296.06 223.61C1296.32 223.35 1296.58 223.22 1296.71 222.96C1296.84 222.83 1296.84 222.83 1296.84 222.83C1296.97 222.7 1296.97 222.7 1296.97 222.57C1297.1 222.31 1297.23 222.05 1297.23 221.79C1297.23 221.66 1297.23 221.53 1297.23 221.4C1297.23 221.01 1297.23 220.62 1296.97 220.23L1256.15 138.46H1337.4C1338.96 138.46 1340.13 137.16 1340.13 135.73C1340.13 134.3 1338.96 133 1337.4 133ZM1412.95 133H1370.18C1345.09 133 1324.68 153.54 1324.68 178.5C1324.68 203.59 1345.09 224 1370.18 224H1412.95C1438.04 224 1458.45 203.59 1458.45 178.5C1458.45 153.54 1438.04 133 1412.95 133ZM1370.18 218.67C1347.95 218.67 1330.01 200.73 1330.01 178.5C1330.01 156.4 1347.95 138.46 1370.18 138.46C1392.28 138.46 1410.22 156.4 1410.22 178.5C1410.22 200.73 1392.28 218.67 1370.18 218.67Z" fill="#A332CA"/>
<path d="M487.323 20H444.553C419.463 20 399.053 40.54 399.053 65.5C399.053 90.59 419.463 111 444.553 111H487.323C512.413 111 532.823 90.59 532.823 65.5C532.823 40.54 512.413 20 487.323 20ZM444.553 105.67C422.323 105.67 404.383 87.73 404.383 65.5C404.383 43.4 422.323 25.46 444.553 25.46C466.653 25.46 484.593 43.4 484.593 65.5C484.593 87.73 466.653 105.67 444.553 105.67ZM661.421 107.23L618.521 21.56C618.131 20.65 617.221 20 616.181 20H573.281C572.371 20 571.59 20.52 571.07 21.3C571.07 21.43 571.07 21.43 571.07 21.43C570.941 21.43 570.941 21.56 570.941 21.56L528.17 107.23C527.65 108.01 527.78 109.05 528.3 109.83C528.69 110.61 529.6 111 530.51 111H658.951C659.861 111 660.771 110.61 661.291 109.83C661.81 109.05 661.81 108.01 661.421 107.23ZM534.8 105.67L573.281 28.71L611.891 105.67H534.8ZM787.808 105.67H706.558L725.278 68.23H766.488C767.918 68.23 769.088 67.06 769.088 65.5C769.088 64.07 767.918 62.9 766.488 62.9H728.008L746.728 25.46H766.488C767.918 25.46 769.088 24.16 769.088 22.73C769.088 21.3 767.918 20 766.488 20H702.138C701.228 20 700.318 20.65 699.798 21.56L657.028 107.23C656.508 108.01 656.638 109.05 657.158 109.83C657.548 110.61 658.458 111 659.368 111H787.808C789.368 111 790.538 109.83 790.538 108.4C790.538 106.97 789.368 105.67 787.808 105.67ZM898.208 65.5L919.008 23.9C919.398 23.12 919.398 22.08 918.878 21.3C918.358 20.52 917.448 20.13 916.538 20.13H873.768H873.638C873.248 20.13 872.858 20.26 872.598 20.39C872.468 20.52 872.338 20.52 872.208 20.52C871.948 20.78 871.558 21.17 871.428 21.56L850.758 62.9H833.598V22.73C833.598 21.3 832.428 20.13 830.998 20.13C829.438 20.13 828.268 21.3 828.268 22.73V62.9H811.238L790.568 21.56C789.788 20.26 788.228 19.74 786.928 20.39C785.628 21.04 785.108 22.6 785.758 23.9L806.558 65.63L785.758 107.23C785.108 108.53 785.628 110.09 786.928 110.74C788.228 111.39 789.788 110.87 790.568 109.57L811.238 68.23H828.268V108.4C828.268 109.83 829.438 111 830.998 111C832.428 111 833.598 109.83 833.598 108.4V68.23H850.758L871.428 109.57C871.558 110.09 871.948 110.35 872.338 110.61C872.728 110.87 873.248 111 873.638 111L873.768 111.13H916.538C917.578 111.13 918.358 110.61 918.878 109.83C919.398 109.05 919.398 108.01 919.008 107.23L898.208 65.5ZM1047.87 107.23L1004.97 21.56C1004.58 20.65 1003.67 20 1002.63 20H959.726C958.816 20 958.036 20.52 957.516 21.3C957.516 21.43 957.516 21.43 957.516 21.43C957.386 21.43 957.386 21.56 957.386 21.56L914.616 107.23C914.096 108.01 914.226 109.05 914.746 109.83C915.136 110.61 916.046 111 916.956 111H1045.4C1046.31 111 1047.22 110.61 1047.74 109.83C1048.26 109.05 1048.26 108.01 1047.87 107.23ZM921.246 105.67L959.726 28.71L998.336 105.67H921.246ZM1176.72 107.23L1133.82 21.56C1133.43 20.65 1132.52 20 1131.48 20H1088.71C1087.67 20 1086.89 20.52 1086.37 21.3C1086.37 21.43 1086.37 21.43 1086.37 21.43C1086.37 21.56 1086.24 21.56 1086.24 21.56L1064.92 64.33C1064.79 64.33 1064.79 64.33 1064.79 64.46L1043.47 107.23C1042.82 108.53 1043.34 110.09 1044.64 110.74C1045.94 111.39 1047.5 110.87 1048.28 109.57L1068.95 68.23H1108.47L1129.14 109.57C1129.27 110.09 1129.66 110.35 1130.05 110.61C1130.44 110.87 1130.96 111 1131.35 111H1131.48H1174.25C1175.29 111 1176.07 110.61 1176.59 109.83C1177.11 109.05 1177.11 108.01 1176.72 107.23ZM1071.55 62.9L1088.71 28.71L1105.74 62.9H1071.55ZM1355.09 107.23L1312.19 21.56C1311.8 20.65 1310.89 20 1309.85 20H1266.95C1266.04 20 1265.26 20.52 1264.74 21.3C1264.74 21.43 1264.74 21.43 1264.74 21.43C1264.61 21.43 1264.61 21.56 1264.61 21.56L1221.84 107.23C1221.32 108.01 1221.45 109.05 1221.97 109.83C1222.36 110.61 1223.27 111 1224.18 111H1352.62C1353.53 111 1354.44 110.61 1354.96 109.83C1355.48 109.05 1355.48 108.01 1355.09 107.23ZM1228.47 105.67L1266.95 28.71L1305.56 105.67H1228.47ZM1483.95 107.23L1441.05 21.56C1440.66 20.65 1439.75 20 1438.71 20H1395.94C1394.9 20 1394.12 20.52 1393.6 21.3C1393.6 21.43 1393.6 21.43 1393.6 21.43L1393.47 21.56L1350.7 107.23C1350.05 108.53 1350.57 110.09 1351.87 110.74C1353.17 111.39 1354.73 110.87 1355.51 109.57L1395.94 28.71L1436.37 109.57C1436.5 110.09 1436.89 110.35 1437.28 110.61C1437.67 110.87 1438.06 111 1438.58 111H1438.71H1481.48C1482.39 111 1483.3 110.61 1483.82 109.83C1484.34 109.05 1484.34 108.01 1483.95 107.23ZM1610.34 20H1503.35C1490.09 20 1479.3 30.92 1479.3 44.18C1479.3 56.01 1487.88 65.89 1499.19 67.84L1479.56 107.23C1478.91 108.53 1479.43 110.09 1480.73 110.74C1481.12 111 1481.51 111.13 1481.9 111.13C1482.94 111.13 1483.85 110.48 1484.37 109.57L1505.04 68.23H1564.84V108.4C1564.84 109.83 1566.14 111.13 1567.57 111.13H1610.34C1611.9 111.13 1613.07 109.83 1613.07 108.4V22.73C1613.07 21.3 1611.9 20 1610.34 20ZM1564.84 62.9C1564.84 62.9 1503.35 62.9 1503.22 62.9C1492.95 62.9 1484.63 54.45 1484.63 44.18C1484.63 33.78 1492.95 25.46 1503.35 25.46H1564.84V62.9ZM670.581 178.5L691.381 136.9C691.771 136.12 691.771 135.08 691.251 134.3C690.731 133.52 689.821 133.13 688.911 133.13H646.141H646.011C645.621 133.13 645.231 133.26 644.971 133.39C644.841 133.52 644.711 133.52 644.581 133.52C644.321 133.78 643.931 134.17 643.801 134.56L623.001 175.9H563.201V135.73C563.201 134.3 561.901 133.13 560.471 133.13C559.041 133.13 557.871 134.3 557.871 135.73V221.4C557.871 222.83 559.041 224.13 560.471 224.13C561.901 224.13 563.201 222.83 563.201 221.4V181.23H623.001L643.801 222.57C643.931 223.09 644.321 223.48 644.711 223.61C645.101 223.87 645.491 224 646.011 224L646.141 224.13H688.911C689.821 224.13 690.731 223.61 691.251 222.83C691.771 222.05 691.771 221.01 691.381 220.23L670.581 178.5ZM820.239 220.23L777.339 134.56C776.949 133.65 776.039 133 774.999 133H732.229C731.189 133 730.409 133.52 729.889 134.3C729.889 134.43 729.889 134.43 729.889 134.43C729.889 134.56 729.759 134.56 729.759 134.56L708.439 177.33C708.309 177.33 708.309 177.33 708.309 177.46L686.989 220.23C686.339 221.53 686.859 223.09 688.159 223.74C689.459 224.39 691.019 223.87 691.799 222.57L712.469 181.23H751.989L772.659 222.57C772.789 223.09 773.179 223.35 773.569 223.61C773.959 223.87 774.479 224 774.869 224H774.999H817.769C818.809 224 819.589 223.61 820.109 222.83C820.629 222.05 820.629 221.01 820.239 220.23ZM715.069 175.9L732.229 141.71L749.259 175.9H715.069ZM928.296 178.5L949.096 136.9C949.486 136.12 949.486 135.08 948.966 134.3C948.446 133.52 947.536 133.13 946.626 133.13H903.856H903.726C903.336 133.13 902.946 133.26 902.686 133.39C902.556 133.52 902.426 133.52 902.296 133.52C902.036 133.78 901.646 134.17 901.516 134.56L880.846 175.9H863.686V135.73C863.686 134.3 862.516 133.13 861.086 133.13C859.526 133.13 858.356 134.3 858.356 135.73V175.9H841.326L820.656 134.56C819.876 133.26 818.316 132.74 817.016 133.39C815.716 134.04 815.196 135.6 815.846 136.9L836.646 178.63L815.846 220.23C815.196 221.53 815.716 223.09 817.016 223.74C818.316 224.39 819.876 223.87 820.656 222.57L841.326 181.23H858.356V221.4C858.356 222.83 859.526 224 861.086 224C862.516 224 863.686 222.83 863.686 221.4V181.23H880.846L901.516 222.57C901.646 223.09 902.036 223.35 902.426 223.61C902.816 223.87 903.336 224 903.726 224L903.856 224.13H946.626C947.666 224.13 948.446 223.61 948.966 222.83C949.486 222.05 949.486 221.01 949.096 220.23L928.296 178.5ZM1077.95 220.23L1035.05 134.56C1034.66 133.65 1033.75 133 1032.71 133H989.814C988.904 133 988.124 133.52 987.604 134.3C987.604 134.43 987.604 134.43 987.604 134.43C987.474 134.43 987.474 134.56 987.474 134.56L944.704 220.23C944.184 221.01 944.314 222.05 944.834 222.83C945.224 223.61 946.134 224 947.044 224H1075.48C1076.39 224 1077.3 223.61 1077.82 222.83C1078.34 222.05 1078.34 221.01 1077.95 220.23ZM951.334 218.67L989.814 141.71L1028.42 218.67H951.334ZM1161.57 133H1118.8C1093.71 133 1073.3 153.54 1073.3 178.5C1073.3 203.59 1093.71 224 1118.8 224H1161.57C1186.66 224 1207.07 203.59 1207.07 178.5C1207.07 153.54 1186.66 133 1161.57 133ZM1118.8 218.67C1096.57 218.67 1078.63 200.73 1078.63 178.5C1078.63 156.4 1096.57 138.46 1118.8 138.46C1140.9 138.46 1158.84 156.4 1158.84 178.5C1158.84 200.73 1140.9 218.67 1118.8 218.67ZM1333.2 133H1204.76C1203.85 133 1202.94 133.52 1202.55 134.3C1202.03 135.08 1201.9 136.12 1202.42 136.9L1245.19 222.57C1245.71 223.48 1246.62 224 1247.53 224H1290.43C1290.82 224 1291.21 224 1291.6 223.74C1291.73 223.74 1291.73 223.61 1291.86 223.61C1292.12 223.35 1292.38 223.22 1292.51 222.96C1292.64 222.83 1292.64 222.83 1292.64 222.83C1292.77 222.7 1292.77 222.7 1292.77 222.57C1292.9 222.31 1293.03 222.05 1293.03 221.79C1293.03 221.66 1293.03 221.53 1293.03 221.4C1293.03 221.01 1293.03 220.62 1292.77 220.23L1251.95 138.46H1333.2C1334.76 138.46 1335.93 137.16 1335.93 135.73C1335.93 134.3 1334.76 133 1333.2 133ZM1408.75 133H1365.98C1340.89 133 1320.48 153.54 1320.48 178.5C1320.48 203.59 1340.89 224 1365.98 224H1408.75C1433.84 224 1454.25 203.59 1454.25 178.5C1454.25 153.54 1433.84 133 1408.75 133ZM1365.98 218.67C1343.75 218.67 1325.81 200.73 1325.81 178.5C1325.81 156.4 1343.75 138.46 1365.98 138.46C1388.08 138.46 1406.02 156.4 1406.02 178.5C1406.02 200.73 1388.08 218.67 1365.98 218.67Z" fill="white"/>
<defs>
<filter id="filter0_d_816_1784" x="399.053" y="19.74" width="1234.01" height="238.65" filterUnits="userSpaceOnUse" color-interpolation-filters="sRGB">
<feFlood flood-opacity="0" result="BackgroundImageFix"/>
<feColorMatrix in="SourceAlpha" type="matrix" values="0 0 0 0 0 0 0 0 0 0 0 0 0 0 0 0 0 0 127 0" result="hardAlpha"/>
<feOffset dx="10" dy="24"/>
<feGaussianBlur stdDeviation="5"/>
<feComposite in2="hardAlpha" operator="out"/>
<feColorMatrix type="matrix" values="0 0 0 0 0 0 0 0 0 0 0 0 0 0 0 0 0 0 0.37 0"/>
<feBlend mode="normal" in2="BackgroundImageFix" result="effect1_dropShadow_816_1784"/>
<feBlend mode="normal" in="SourceGraphic" in2="effect1_dropShadow_816_1784" result="shape"/>
</filter>
<filter id="filter1_f_816_1784" x="390.849" y="15.74" width="1222.01" height="212.65" filterUnits="userSpaceOnUse" color-interpolation-filters="sRGB">
<feFlood flood-opacity="0" result="BackgroundImageFix"/>
<feBlend mode="normal" in="SourceGraphic" in2="BackgroundImageFix" result="shape"/>
<feGaussianBlur stdDeviation="2" result="effect1_foregroundBlur_816_1784"/>
</filter>
</defs>
</svg>
