<svg width="888" height="93" viewBox="0 0 888 93" fill="none" xmlns="http://www.w3.org/2000/svg">
<path d="M113.519 46.5L134.319 4.9C134.709 4.11999 134.709 3.08 134.189 2.29999C133.669 1.51999 132.759 1.12999 131.849 1.12999H89.0792H88.9492C88.5592 1.12999 88.1692 1.26 87.9092 1.39C87.7792 1.51999 87.6492 1.51999 87.5192 1.51999C87.2592 1.78 86.8692 2.16999 86.7392 2.56L65.9392 43.9H6.13918V3.73C6.13918 2.29999 4.83918 1.12999 3.40918 1.12999C1.97918 1.12999 0.80918 2.29999 0.80918 3.73V89.4C0.80918 90.83 1.97918 92.13 3.40918 92.13C4.83918 92.13 6.13918 90.83 6.13918 89.4V49.23H65.9392L86.7392 90.57C86.8692 91.09 87.2592 91.48 87.6492 91.61C88.0392 91.87 88.4292 92 88.9492 92L89.0792 92.13H131.849C132.759 92.13 133.669 91.61 134.189 90.83C134.709 90.05 134.709 89.01 134.319 88.23L113.519 46.5ZM217.937 0.999994H175.167C150.077 0.999994 129.667 21.54 129.667 46.5C129.667 71.59 150.077 92 175.167 92H217.937C243.027 92 263.437 71.59 263.437 46.5C263.437 21.54 243.027 0.999994 217.937 0.999994ZM175.167 86.67C152.937 86.67 134.997 68.73 134.997 46.5C134.997 24.4 152.937 6.45999 175.167 6.45999C197.267 6.45999 215.207 24.4 215.207 46.5C215.207 68.73 197.267 86.67 175.167 86.67ZM368.114 0.999994H261.124C259.694 0.999994 258.524 2.29999 258.524 3.73V89.4C258.524 90.83 259.694 92 261.124 92H304.024C305.454 92 306.624 90.83 306.624 89.4V49.36H368.114C381.504 49.36 392.294 38.44 392.294 25.18C392.294 11.92 381.504 0.999994 368.114 0.999994ZM368.114 43.9H306.624V6.45999H368.114C378.514 6.45999 386.964 14.78 386.964 25.18C386.964 35.58 378.514 43.9 368.114 43.9ZM486.561 43.77H448.211L467.581 4.9C468.101 4.11999 467.971 3.08 467.451 2.29999C467.061 1.51999 466.151 0.999994 465.241 0.999994H422.341H401.021C399.461 0.999994 398.291 2.29999 398.291 3.73C398.291 5.15999 399.461 6.45999 401.021 6.45999H418.051L398.551 45.33C398.161 46.11 398.291 47.15 398.681 47.93C399.201 48.71 400.111 49.23 401.021 49.23H443.791C454.191 49.23 462.511 57.55 462.511 67.95C462.511 78.35 454.191 86.67 443.791 86.67H379.571C378.141 86.67 376.971 87.97 376.971 89.4C376.971 90.83 378.141 92 379.571 92H486.561C499.951 92 510.741 81.21 510.741 67.95C510.741 54.69 499.951 43.77 486.561 43.77ZM628.929 88.23L586.029 2.56C585.509 1.39 584.209 0.869995 583.039 1.12999C581.869 1.39 580.959 2.56 580.959 3.73V78.09L543.259 2.56C542.999 2.16999 542.739 1.78 542.349 1.51999C542.219 1.51999 542.219 1.51999 542.089 1.39C541.699 1.26 541.439 1.12999 541.049 1.12999C540.919 1.12999 540.919 0.999994 540.789 0.999994H498.019C497.109 0.999994 496.199 1.51999 495.809 2.29999C495.289 3.08 495.159 4.11999 495.679 4.9L538.449 90.57C538.969 91.48 539.879 92 540.789 92H583.689H583.819C583.949 92 584.079 92 584.339 92C584.469 92 584.599 91.87 584.859 91.74C584.859 91.74 584.989 91.74 584.989 91.61C585.379 91.48 585.639 91.22 585.899 90.83C586.029 90.7 586.029 90.7 586.029 90.7C586.159 90.31 586.289 90.05 586.289 89.66C586.289 89.53 586.289 89.53 586.289 89.4V15.04L624.119 90.57C624.639 91.48 625.549 92 626.459 92C626.849 92 627.369 92 627.759 91.74C629.059 91.09 629.579 89.53 628.929 88.23ZM755.316 0.999994H712.546C711.116 0.999994 709.816 2.29999 709.816 3.73V43.9H629.606V3.73C629.606 2.29999 628.306 0.999994 626.876 0.999994C625.446 0.999994 624.276 2.29999 624.276 3.73V89.4C624.276 90.83 625.446 92 626.876 92C628.306 92 629.606 90.83 629.606 89.4V49.23H709.816V89.4C709.816 90.83 711.116 92 712.546 92H755.316C756.876 92 758.046 90.83 758.046 89.4V3.73C758.046 2.29999 756.876 0.999994 755.316 0.999994ZM886.643 88.23L843.743 2.56C843.353 1.64999 842.443 0.999994 841.403 0.999994H798.633C797.593 0.999994 796.813 1.51999 796.293 2.29999C796.293 2.43 796.293 2.43 796.293 2.43C796.293 2.56 796.163 2.56 796.163 2.56L774.843 45.33C774.713 45.33 774.713 45.33 774.713 45.46L753.393 88.23C752.743 89.53 753.263 91.09 754.563 91.74C755.863 92.39 757.423 91.87 758.203 90.57L778.873 49.23H818.393L839.063 90.57C839.193 91.09 839.583 91.35 839.973 91.61C840.363 91.87 840.883 92 841.273 92H841.403H884.173C885.213 92 885.993 91.61 886.513 90.83C887.033 90.05 887.033 89.01 886.643 88.23ZM781.473 43.9L798.633 9.71L815.663 43.9H781.473Z" fill="#1F252D"/>
</svg>
