<svg width="168" height="54" viewBox="0 0 168 54" fill="none" xmlns="http://www.w3.org/2000/svg">
<g filter="url(#filter0_d_801_836)">
<path fill-rule="evenodd" clip-rule="evenodd" d="M6.2704 3.59863C3.81391 4.15959 3.5709 5.82404 5.51897 8.74508C5.74151 9.07877 5.97561 9.40079 6.03919 9.46053C6.21642 9.62718 7.00357 10.2554 7.77327 10.8446C8.46725 11.3758 10.8309 12.6988 11.0991 12.7062C11.1774 12.7084 11.5015 12.849 11.8195 13.0188C12.1374 13.1886 12.4677 13.328 12.5534 13.3287C12.6392 13.3293 12.8733 13.4077 13.0737 13.5031C13.274 13.5984 13.7917 13.7965 14.2239 13.9435C16.2877 14.6447 15.9241 15.9785 13.8071 15.473C13.5405 15.4093 12.8541 15.2634 12.2819 15.1487C11.7096 15.034 11.1374 14.8901 11.0102 14.8287C9.57452 14.1356 6.67502 13.3483 6.67502 13.6515C6.67502 14.1039 8.15234 16.4754 8.82887 17.1089C9.62169 17.8513 11.7269 19.2281 12.0693 19.2281C12.151 19.2281 12.4404 19.3346 12.7123 19.4649C13.5295 19.8563 14.3382 20.1078 14.777 20.1072C16.2223 20.1051 16.986 20.6094 16.573 21.2936C16.3403 21.6791 13.7179 21.7745 12.6208 21.4373C11.2507 21.0162 10.5212 21.0761 10.8189 21.5854C10.9366 21.7866 13.5087 23.6173 13.6763 23.6192C13.7438 23.6198 14.0299 23.7442 14.3121 23.8953C15.4229 24.4904 19.6278 24.7735 21.5303 24.3813C23.7431 23.9251 23.88 23.892 24.1162 23.7548C24.2433 23.6809 24.4799 23.6204 24.6416 23.6204C26.1569 23.6204 29.1692 21.8215 30.9276 19.8662C32.441 18.1835 32.4985 17.9024 31.5325 16.9064C31.3316 16.6994 31.0813 16.3323 30.9761 16.0907C30.7239 15.5113 27.5461 12.0648 26.4435 11.175C25.3417 10.2858 23.418 8.87421 22.8736 8.55533C22.6435 8.42042 22.143 8.11283 21.7615 7.87163C21.38 7.6303 20.7818 7.2882 20.4321 7.11137C20.0824 6.93443 19.6922 6.73602 19.565 6.67051C19.1483 6.45554 17.3844 5.78689 16.6171 5.5531C16.2038 5.4271 15.7356 5.26684 15.5766 5.19694C15.4177 5.12704 15.0015 4.98573 14.6518 4.88283C12.996 4.3959 12.6035 4.27731 12.2737 4.16449C12.0784 4.09773 11.7759 4.04313 11.6013 4.04313C11.4269 4.04313 11.1705 3.97549 11.0315 3.89292C10.391 3.51166 7.44761 3.32982 6.2704 3.59863ZM35.7213 18.1943C35.1284 18.7955 34.297 20.9555 33.836 23.092C33.5847 24.2568 33.529 24.3906 33.2663 24.4589C31.5146 24.914 30.9632 26.6902 32.331 27.4719C32.6125 27.6328 32.8606 27.7836 32.8822 27.8071C32.9038 27.8307 32.838 28.2677 32.7358 28.7784C32.074 32.0884 32.262 33.2836 33.4444 33.2836C34.1457 33.2836 34.4723 32.8297 34.6349 31.6289C35.0283 28.7242 35.3579 27.3873 35.6219 27.6252C35.7209 27.7145 35.8043 27.7151 35.8854 27.6271C35.9506 27.5564 36.3578 27.5153 36.7909 27.536L37.5781 27.5735L37.8857 28.8913C38.6739 32.2668 39.197 33.4091 39.9553 33.4091C40.5499 33.4091 40.7462 32.7816 40.5481 31.5142C40.4789 31.0725 40.3711 30.3721 40.3082 29.958C40.2453 29.5438 40.1099 28.822 40.0073 28.3538C39.8261 27.5277 39.8275 27.4942 40.054 27.2243C40.8288 26.3004 40.6528 25.1915 39.6538 24.7025C39.1217 24.4421 39.0557 24.1892 39.0311 22.3165C39.0237 21.7568 38.9927 21.4117 38.9621 21.5498C38.7774 22.3834 38.6448 22.0243 38.4843 20.256C38.3774 19.0776 38.1133 18.4751 37.7037 18.4751C37.6243 18.4751 37.4048 18.3339 37.2159 18.1614C36.7413 17.7279 36.1688 17.7405 35.7213 18.1943ZM85.7228 18.0665C85.1256 18.4686 84.5826 19.7696 83.8543 22.5432L83.3627 24.4151L82.8469 24.5783C81.2466 25.0848 80.9706 27.6363 82.5162 27.6363C82.8056 27.6363 82.8048 27.8843 82.5104 29.2677C82.3856 29.8544 82.2494 30.8248 82.2076 31.424L82.1318 32.5136L82.4865 32.8986C83.3922 33.8818 84.2419 33.2601 84.5332 31.4012C85.0595 28.0419 85.2139 27.4145 85.4601 27.6363C85.5657 27.7315 85.636 27.7334 85.6878 27.6424C85.7791 27.4819 87.328 27.4654 87.4183 27.624C87.4538 27.6861 87.662 28.5096 87.8811 29.4538C88.6348 32.7024 89.6213 34.1961 90.3089 33.1301C90.5917 32.692 90.3809 30.6522 89.7894 28.1023C89.6592 27.5412 89.6668 27.5055 90.014 27.0484C90.646 26.2161 90.3752 25.0532 89.4585 24.6623C88.9887 24.462 88.8704 24.0215 88.8704 22.4725C88.8704 22.1264 88.8212 21.989 88.697 21.989C88.6016 21.989 88.5236 21.9348 88.5236 21.8684C88.5236 20.1836 88.1495 18.6875 87.6886 18.5293C87.5437 18.4796 87.2644 18.306 87.0677 18.1433C86.6486 17.7969 86.1643 17.7693 85.7228 18.0665ZM59.4699 18.055C59.4265 18.102 59.3911 18.597 59.3909 19.1549C59.3907 21.9158 58.9497 24.8371 58.1426 27.4227C57.7408 28.7104 57.6582 28.6055 57.323 26.3813C57.1826 25.4495 56.9947 24.3201 56.9055 23.8714C56.0711 19.6755 55.8822 19.1219 55.096 18.5692C53.7485 17.622 53.3166 18.9624 53.951 22.122C54.509 24.9011 54.9792 28.058 55.0642 29.5957C55.1263 30.7196 55.1866 31.0399 55.4041 31.4012C55.5496 31.6427 55.7058 31.9816 55.7512 32.1541C56.5443 35.1645 60.749 30.1166 61.8665 24.8126C62.7431 20.6518 62.3972 18.3211 60.8781 18.1522L60.1209 18.068L60.0406 20.0197C59.9261 22.8099 59.6172 24.6929 58.9046 26.9461C58.5327 28.1221 58.0049 29.1937 57.8699 29.0471C57.7922 28.9628 57.8291 28.7607 57.9817 28.4356C59.1315 25.9855 60.4156 17.0283 59.4699 18.055ZM100.026 18.3004C98.9454 18.3934 97.0648 18.4849 95.8471 18.5037C94.6294 18.5224 93.693 18.5794 93.7662 18.6301C93.8394 18.6808 94.1693 18.7231 94.4994 18.7242C94.8294 18.7252 95.1368 18.7917 95.1826 18.8721C95.2451 18.9819 94.8353 18.9978 93.5269 18.9363C90.7977 18.8081 90.4218 19.4509 92.0815 21.4083C92.4714 21.8684 93.0475 22.0278 94.5929 22.1036L96.0957 22.1772L96.0799 22.6165C95.8967 27.7053 95.8992 31.4248 96.0863 31.9565C96.5737 33.3418 97.8283 33.3566 98.0662 31.9799C98.1687 31.3872 98.3479 31.3979 98.3581 31.9973C98.3647 32.3748 98.386 32.4182 98.4657 32.2169C98.5203 32.0788 98.5687 29.6928 98.5732 26.9147C98.5776 24.1366 98.6144 21.8635 98.6549 21.8635C98.9573 21.8635 101.712 21.3211 101.973 21.2102C102.178 21.1231 102.368 20.9008 102.478 20.6198C102.574 20.3721 102.761 19.9346 102.892 19.6479C103.122 19.1464 103.123 19.1135 102.928 18.7906C102.817 18.606 102.754 18.3747 102.788 18.2767C102.864 18.0634 102.77 18.0642 100.026 18.3004ZM42.5705 18.5236C42.3796 18.6138 42.1522 18.781 42.0649 18.8952C41.9778 19.0092 41.8404 19.1026 41.7599 19.1026C41.6794 19.1026 41.4972 19.2049 41.355 19.3297L41.0965 19.557L41.3011 20.5847C41.4244 21.204 41.5631 21.6125 41.65 21.6125C41.842 21.6125 41.8841 21.743 42.3994 23.9342C42.6428 24.9695 43.002 26.4909 43.1976 27.3149C43.6149 29.0735 43.5934 28.8913 43.3838 28.8913C43.1465 28.8913 43.0538 28.6367 42.7441 27.1343C42.5948 26.4096 42.4314 25.765 42.3811 25.7019C42.2674 25.559 42.3642 26.3198 42.5922 27.3586C42.8012 28.311 42.7477 28.5578 42.3664 28.4004C40.4956 27.6283 40.3795 30.1615 42.2425 31.1065C43.1716 31.5779 43.3621 31.7261 43.5002 32.0847C43.8535 33.0025 44.8563 33.3017 45.661 32.7293C45.9015 32.5581 45.9889 32.5586 46.5042 32.7341C52.5463 34.7903 54.8381 30.1748 50.5365 24.6132C46.9582 19.9867 44.0984 17.8006 42.5705 18.5236ZM66.6322 18.659C66.1267 18.8546 65.5786 19.3733 65.3289 19.8923C65.2362 20.0851 65.0438 20.2909 64.9015 20.3496C63.3298 20.9983 62.6355 28.0356 63.8635 30.8706C65.3045 34.1972 69.0902 33.6425 70.266 29.9322C71.1451 27.1589 70.3478 19.9937 69.1061 19.5063C69.0084 19.468 68.7414 19.2203 68.5128 18.9559C68.0439 18.4138 67.4914 18.3264 66.6322 18.659ZM72.3668 18.6049C71.8952 18.8107 71.8347 19.1829 71.9763 21.0077C72.3168 25.3962 72.4699 27.1265 72.5733 27.7535C72.635 28.1285 72.6857 29.393 72.6857 30.5632C72.6857 33.2458 72.7203 33.2886 74.5353 32.8427C75.899 32.5078 78.0392 32.2719 79.4962 32.2959C81.3018 32.3258 81.6257 32.0775 81.1897 30.9976C81.0983 30.7709 80.9963 30.4436 80.9632 30.2704C80.8207 29.5232 78.7549 29.2582 76.5006 29.6978C75.37 29.9182 75.4675 30.2041 75.2135 25.9225C75.0913 23.8626 74.9204 21.669 74.8338 21.0478L74.6763 19.9183L74.6637 20.7728C74.6501 21.6842 74.4793 21.8186 74.3594 21.012C74.2801 20.4779 74.0779 19.391 74.0002 19.0813C73.9062 18.7068 72.8436 18.3969 72.3668 18.6049ZM105.178 18.6917C103.331 19.4821 103.013 29.3341 104.815 29.9547C104.948 30.0008 105.261 30.3634 105.509 30.7605C107.878 34.5461 111.761 33.2818 112.913 28.3502C113.646 25.2103 113.42 19.6397 112.531 18.9264L112.203 18.6634L111.948 19.0085C111.792 19.2208 111.582 19.3536 111.402 19.3536C110.657 19.3536 110.605 19.5716 110.598 22.7155C110.585 29.0972 109.968 30.783 108.125 29.4723C107.748 29.2042 107.073 26.6597 106.904 24.8754L106.804 23.8087L106.841 25.2361C106.862 26.0302 106.836 26.5884 106.782 26.4943C106.354 25.7431 106.323 21.3692 106.743 21.0005C107.81 20.063 106.497 18.127 105.178 18.6917ZM115.453 18.824C114.903 19.1222 114.76 19.6318 114.795 21.1621C114.816 22.0683 114.785 22.4203 114.679 22.459C114.571 22.4986 114.532 22.218 114.523 21.3406C114.51 20.0319 114.397 19.3847 114.247 19.7673C114.104 20.1338 114.277 29.4231 114.455 30.923C114.651 32.5739 114.802 32.8599 115.536 32.9794C116.522 33.1399 116.541 33.0644 116.471 29.231C116.405 25.6033 116.467 25.3736 116.964 27.3897C118.339 32.9641 118.327 32.9325 118.957 32.8829L119.448 32.8444L119.693 31.9659C120.11 30.4651 120.477 28.6004 120.459 28.0755C120.441 27.5789 121.039 24.7037 121.438 23.3694C121.637 22.7055 121.876 22.534 121.876 23.0557C121.876 23.1938 121.927 23.3914 121.99 23.4949C122.053 23.5985 122.215 24.2479 122.349 24.9381C122.484 25.6284 122.677 26.6166 122.777 27.1343C123.059 28.5867 123.321 30.6668 123.321 31.4569C123.321 32.3705 123.436 32.588 124.118 32.963C125.481 33.7129 126.198 32.1544 125.702 29.5187C125.145 26.5533 124.907 25.227 124.645 23.6286C124.238 21.137 123.857 19.9732 123.177 19.146C122.587 18.4291 120.849 18.8619 120.724 19.7566C120.177 23.6931 118.831 29.2621 118.644 28.3668C118.149 25.9959 117.31 20.9121 117.31 20.2823C117.309 19.9359 116.807 18.9848 116.537 18.8187C116.227 18.6285 115.811 18.6305 115.453 18.824ZM72.7357 19.2104C72.6894 19.3927 72.662 20.8125 72.6748 22.3655C72.7102 26.6584 72.4955 25.7694 72.1414 20.1566C72.0809 19.1994 72.0927 19.1282 72.3424 18.9383C72.683 18.6793 72.8427 18.7897 72.7357 19.2104ZM116.827 20.4517C116.885 20.5725 116.995 21.0666 117.072 21.5498C117.149 22.0329 117.312 22.9497 117.434 23.5869C117.761 25.2956 117.541 25.601 117.161 23.9657C116.42 20.7766 116.28 19.2986 116.827 20.4517ZM67.4505 20.7654C67.9863 21.5232 68.4337 24.1815 68.4485 26.6951C68.4699 30.3396 67.5861 32.0493 66.1093 31.2203C65.3032 30.7678 64.9953 29.8455 65.6991 29.9916C66.0349 30.0612 66.0343 30.0681 65.8088 28.5775C65.4979 26.5238 65.6473 23.8936 66.1579 22.4282C66.6867 20.9111 67.1405 20.3272 67.4505 20.7654ZM93.2408 21.289C94.078 21.484 94.212 21.5713 93.8262 21.671C93.4746 21.7617 92.4287 21.4726 92.3668 21.2674C92.309 21.0764 92.33 21.077 93.2408 21.289ZM36.8316 22.4596C37.1592 24.7714 37.1649 24.7444 36.3531 24.748C35.7594 24.7505 35.739 24.6156 36.1036 23.0991C36.5494 21.2458 36.6473 21.1597 36.8316 22.4596ZM86.7987 23.3387C86.9373 24.6887 86.9131 24.7448 86.1894 24.748C85.6087 24.7507 85.604 24.7218 85.9399 23.2343C86.4109 21.1491 86.5758 21.1691 86.7987 23.3387ZM66.5677 22.1877C66.5733 22.3339 66.6007 22.3636 66.6375 22.2636C66.6709 22.173 66.6668 22.0647 66.6284 22.023C66.59 21.9813 66.5627 22.0554 66.5677 22.1877ZM45.9194 23.1664C48.4401 25.0784 51.7194 29.5152 51.2331 30.3555C50.793 31.1162 47.9798 31.0451 46.1779 30.2278C45.6881 30.0056 45.7242 30.1255 45.2917 27.2825C45.0992 26.0182 44.8398 24.4416 44.7152 23.7788C44.4191 22.2057 44.5591 22.1344 45.9194 23.1664ZM42.0503 24.6244C42.0503 24.7164 42.0849 24.754 42.1274 24.7081C42.1697 24.6621 42.1697 24.5868 42.1274 24.5407C42.0849 24.4948 42.0503 24.5324 42.0503 24.6244ZM35.4284 28.6505C35.3223 29.0935 35.2107 29.6536 35.1804 29.8952C35.0262 31.127 35.0002 31.6522 35.0935 31.6522C35.1502 31.6522 35.2301 31.3047 35.2709 30.8799C35.3118 30.4551 35.4279 29.6652 35.5288 29.1247C35.7579 27.8976 35.6878 27.567 35.4284 28.6505ZM85.2568 28.8675C85.0916 29.6731 84.8502 32.1093 84.9935 31.5267C85.0986 31.099 85.536 27.9907 85.497 27.9484C85.4738 27.9232 85.3657 28.3367 85.2568 28.8675ZM77.0209 33.0849L75.6336 33.2288L77.9766 33.2311C79.5638 33.2329 80.3066 33.1911 80.2794 33.1018C80.2238 32.9193 78.6947 32.9114 77.0209 33.0849ZM74.8822 33.3463C74.8822 33.3809 74.9082 33.4091 74.94 33.4091C74.9718 33.4091 74.9978 33.3809 74.9978 33.3463C74.9978 33.3118 74.9718 33.2836 74.94 33.2836C74.9082 33.2836 74.8822 33.3118 74.8822 33.3463Z" fill="white"/>
</g>
<g filter="url(#filter1_f_801_836)">
<path fill-rule="evenodd" clip-rule="evenodd" d="M5.08913 3.59863C2.63263 4.15959 2.38963 5.82404 4.3377 8.74508C4.56024 9.07877 4.79434 9.40079 4.85792 9.46053C5.03514 9.62718 5.8223 10.2554 6.592 10.8446C7.28598 11.3758 9.64965 12.6988 9.91785 12.7062C9.99611 12.7084 10.3203 12.849 10.6382 13.0188C10.9561 13.1886 11.2864 13.328 11.3722 13.3287C11.4579 13.3293 11.692 13.4077 11.8924 13.5031C12.0927 13.5984 12.6104 13.7965 13.0427 13.9435C15.1064 14.6447 14.7429 15.9785 12.6258 15.473C12.3592 15.4093 11.6729 15.2634 11.1006 15.1487C10.5284 15.034 9.95612 14.8901 9.82895 14.8287C8.39325 14.1356 5.49375 13.3483 5.49375 13.6515C5.49375 14.1039 6.97107 16.4754 7.64759 17.1089C8.44041 17.8513 10.5456 19.2281 10.888 19.2281C10.9697 19.2281 11.2591 19.3346 11.531 19.4649C12.3482 19.8563 13.1569 20.1078 13.5957 20.1072C15.041 20.1051 15.8047 20.6094 15.3918 21.2936C15.159 21.6791 12.5367 21.7745 11.4396 21.4373C10.0694 21.0162 9.33994 21.0761 9.63762 21.5854C9.75531 21.7866 12.3274 23.6173 12.495 23.6192C12.5626 23.6198 12.8487 23.7442 13.1309 23.8953C14.2416 24.4904 18.4465 24.7735 20.349 24.3813C22.5618 23.9251 22.6987 23.892 22.9349 23.7548C23.0621 23.6809 23.2986 23.6204 23.4603 23.6204C24.9757 23.6204 27.9879 21.8215 29.7464 19.8662C31.2597 18.1835 31.3172 17.9024 30.3512 16.9064C30.1503 16.6994 29.9 16.3323 29.7948 16.0907C29.5427 15.5113 26.3648 12.0648 25.2623 11.175C24.1604 10.2858 22.2368 8.87421 21.6924 8.55533C21.4622 8.42042 20.9617 8.11283 20.5802 7.87163C20.1987 7.6303 19.6005 7.2882 19.2508 7.11137C18.9011 6.93443 18.5109 6.73602 18.3837 6.67051C17.967 6.45554 16.2031 5.78689 15.4358 5.5531C15.0225 5.4271 14.5543 5.26684 14.3954 5.19694C14.2364 5.12704 13.8202 4.98573 13.4705 4.88283C11.8147 4.3959 11.4222 4.27731 11.0924 4.16449C10.8971 4.09773 10.5946 4.04313 10.42 4.04313C10.2456 4.04313 9.98918 3.97549 9.85022 3.89292C9.20977 3.51166 6.26634 3.32982 5.08913 3.59863ZM34.5401 18.1943C33.9471 18.7955 33.1157 20.9555 32.6548 23.092C32.4034 24.2568 32.3477 24.3906 32.0851 24.4589C30.3333 24.914 29.782 26.6902 31.1497 27.4719C31.4312 27.6328 31.6793 27.7836 31.7009 27.8071C31.7225 27.8307 31.6567 28.2677 31.5545 28.7784C30.8927 32.0884 31.0807 33.2836 32.2631 33.2836C32.9645 33.2836 33.2911 32.8297 33.4536 31.6289C33.847 28.7242 34.1766 27.3873 34.4406 27.6252C34.5396 27.7145 34.6231 27.7151 34.7041 27.6271C34.7693 27.5564 35.1766 27.5153 35.6096 27.536L36.3968 27.5735L36.7044 28.8913C37.4926 32.2668 38.0157 33.4091 38.774 33.4091C39.3687 33.4091 39.565 32.7816 39.3668 31.5142C39.2977 31.0725 39.1898 30.3721 39.1269 29.958C39.064 29.5438 38.9287 28.822 38.826 28.3538C38.6449 27.5277 38.6462 27.4942 38.8727 27.2243C39.6475 26.3004 39.4715 25.1915 38.4725 24.7025C37.9405 24.4421 37.8745 24.1892 37.8498 22.3165C37.8424 21.7568 37.8115 21.4117 37.7808 21.5498C37.5961 22.3834 37.4635 22.0243 37.303 20.256C37.1961 19.0776 36.932 18.4751 36.5225 18.4751C36.443 18.4751 36.2235 18.3339 36.0346 18.1614C35.56 17.7279 34.9876 17.7405 34.5401 18.1943ZM84.5416 18.0665C83.9443 18.4686 83.4013 19.7696 82.673 22.5432L82.1815 24.4151L81.6656 24.5783C80.0653 25.0848 79.7894 27.6363 81.3349 27.6363C81.6244 27.6363 81.6236 27.8843 81.3291 29.2677C81.2044 29.8544 81.0681 30.8248 81.0264 31.424L80.9505 32.5136L81.3052 32.8986C82.211 33.8818 83.0606 33.2601 83.352 31.4012C83.8782 28.0419 84.0327 27.4145 84.2788 27.6363C84.3845 27.7315 84.4547 27.7334 84.5065 27.6424C84.5979 27.4819 86.1467 27.4654 86.237 27.624C86.2725 27.6861 86.4807 28.5096 86.6998 29.4538C87.4535 32.7024 88.44 34.1961 89.1276 33.1301C89.4104 32.692 89.1996 30.6522 88.6081 28.1023C88.4779 27.5412 88.4855 27.5055 88.8327 27.0484C89.4647 26.2161 89.194 25.0532 88.2772 24.6623C87.8074 24.462 87.6891 24.0215 87.6891 22.4725C87.6891 22.1264 87.6399 21.989 87.5157 21.989C87.4204 21.989 87.3423 21.9348 87.3423 21.8684C87.3423 20.1836 86.9682 18.6875 86.5073 18.5293C86.3624 18.4796 86.0832 18.306 85.8864 18.1433C85.4673 17.7969 84.9831 17.7693 84.5416 18.0665ZM58.2886 18.055C58.2453 18.102 58.2098 18.597 58.2097 19.1549C58.2094 21.9158 57.7684 24.8371 56.9614 27.4227C56.5595 28.7104 56.477 28.6055 56.1417 26.3813C56.0014 25.4495 55.8134 24.3201 55.7243 23.8714C54.8898 19.6755 54.7009 19.1219 53.9147 18.5692C52.5672 17.622 52.1353 18.9624 52.7697 22.122C53.3278 24.9011 53.7979 28.058 53.8829 29.5957C53.945 30.7196 54.0053 31.0399 54.2228 31.4012C54.3683 31.6427 54.5245 31.9816 54.57 32.1541C55.363 35.1645 59.5677 30.1166 60.6852 24.8126C61.5619 20.6518 61.216 18.3211 59.6968 18.1522L58.9396 18.068L58.8594 20.0197C58.7448 22.8099 58.4359 24.6929 57.7233 26.9461C57.3514 28.1221 56.8237 29.1937 56.6886 29.0471C56.611 28.9628 56.6478 28.7607 56.8004 28.4356C57.9502 25.9855 59.2343 17.0283 58.2886 18.055ZM98.8451 18.3004C97.7641 18.3934 95.8835 18.4849 94.6658 18.5037C93.4481 18.5224 92.5117 18.5794 92.5849 18.6301C92.6581 18.6808 92.988 18.7231 93.3181 18.7242C93.6481 18.7252 93.9555 18.7917 94.0013 18.8721C94.0639 18.9819 93.654 18.9978 92.3456 18.9363C89.6164 18.8081 89.2406 19.4509 90.9002 21.4083C91.2901 21.8684 91.8662 22.0278 93.4116 22.1036L94.9145 22.1772L94.8986 22.6165C94.7154 27.7053 94.718 31.4248 94.905 31.9565C95.3924 33.3418 96.647 33.3566 96.885 31.9799C96.9874 31.3872 97.1666 31.3979 97.1769 31.9973C97.1835 32.3748 97.2047 32.4182 97.2844 32.2169C97.3391 32.0788 97.3874 29.6928 97.3919 26.9147C97.3963 24.1366 97.4332 21.8635 97.4736 21.8635C97.7761 21.8635 100.531 21.3211 100.792 21.2102C100.997 21.1231 101.187 20.9008 101.296 20.6198C101.393 20.3721 101.579 19.9346 101.711 19.6479C101.94 19.1464 101.942 19.1135 101.747 18.7906C101.635 18.606 101.573 18.3747 101.607 18.2767C101.683 18.0634 101.589 18.0642 98.8451 18.3004ZM41.3892 18.5236C41.1983 18.6138 40.971 18.781 40.8837 18.8952C40.7965 19.0092 40.6592 19.1026 40.5786 19.1026C40.4981 19.1026 40.3159 19.2049 40.1737 19.3297L39.9152 19.557L40.1199 20.5847C40.2431 21.204 40.3818 21.6125 40.4688 21.6125C40.6608 21.6125 40.7029 21.743 41.2181 23.9342C41.4616 24.9695 41.8208 26.4909 42.0164 27.3149C42.4336 29.0735 42.4121 28.8913 42.2025 28.8913C41.9653 28.8913 41.8726 28.6367 41.5629 27.1343C41.4135 26.4096 41.2501 25.765 41.1998 25.7019C41.0861 25.559 41.183 26.3198 41.4109 27.3586C41.62 28.311 41.5664 28.5578 41.1852 28.4004C39.3143 27.6283 39.1983 30.1615 41.0612 31.1065C41.9904 31.5779 42.1809 31.7261 42.3189 32.0847C42.6722 33.0025 43.6751 33.3017 44.4797 32.7293C44.7203 32.5581 44.8077 32.5586 45.3229 32.7341C51.365 34.7903 53.6568 30.1748 49.3552 24.6132C45.7769 19.9867 42.9172 17.8006 41.3892 18.5236ZM65.451 18.659C64.9454 18.8546 64.3973 19.3733 64.1476 19.8923C64.0549 20.0851 63.8625 20.2909 63.7202 20.3496C62.1486 20.9983 61.4542 28.0356 62.6822 30.8706C64.1232 34.1972 67.909 33.6425 69.0848 29.9322C69.9638 27.1589 69.1665 19.9937 67.9248 19.5063C67.8271 19.468 67.5602 19.2203 67.3315 18.9559C66.8626 18.4138 66.3101 18.3264 65.451 18.659ZM71.1856 18.6049C70.7139 18.8107 70.6534 19.1829 70.795 21.0077C71.1355 25.3962 71.2887 27.1265 71.392 27.7535C71.4538 28.1285 71.5044 29.393 71.5044 30.5632C71.5044 33.2458 71.5391 33.2886 73.3541 32.8427C74.7178 32.5078 76.858 32.2719 78.3149 32.2959C80.1206 32.3258 80.4444 32.0775 80.0084 30.9976C79.917 30.7709 79.815 30.4436 79.782 30.2704C79.6394 29.5232 77.5737 29.2582 75.3194 29.6978C74.1888 29.9182 74.2862 30.2041 74.0322 25.9225C73.91 23.8626 73.7392 21.669 73.6526 21.0478L73.495 19.9183L73.4824 20.7728C73.4689 21.6842 73.298 21.8186 73.1781 21.012C73.0988 20.4779 72.8966 19.391 72.8189 19.0813C72.725 18.7068 71.6623 18.3969 71.1856 18.6049ZM103.996 18.6917C102.15 19.4821 101.832 29.3341 103.633 29.9547C103.767 30.0008 104.08 30.3634 104.328 30.7605C106.696 34.5461 110.58 33.2818 111.731 28.3502C112.465 25.2103 112.239 19.6397 111.349 18.9264L111.021 18.6634L110.767 19.0085C110.61 19.2208 110.4 19.3536 110.221 19.3536C109.476 19.3536 109.424 19.5716 109.417 22.7155C109.404 29.0972 108.787 30.783 106.944 29.4723C106.567 29.2042 105.891 26.6597 105.723 24.8754L105.622 23.8087L105.66 25.2361C105.681 26.0302 105.654 26.5884 105.601 26.4943C105.173 25.7431 105.142 21.3692 105.562 21.0005C106.629 20.063 105.316 18.127 103.996 18.6917ZM114.272 18.824C113.722 19.1222 113.578 19.6318 113.614 21.1621C113.635 22.0683 113.603 22.4203 113.498 22.459C113.39 22.4986 113.351 22.218 113.342 21.3406C113.329 20.0319 113.216 19.3847 113.066 19.7673C112.923 20.1338 113.096 29.4231 113.274 30.923C113.47 32.5739 113.62 32.8599 114.354 32.9794C115.341 33.1399 115.36 33.0644 115.29 29.231C115.224 25.6033 115.285 25.3736 115.783 27.3897C117.158 32.9641 117.146 32.9325 117.776 32.8829L118.267 32.8444L118.511 31.9659C118.929 30.4651 119.296 28.6004 119.277 28.0755C119.259 27.5789 119.858 24.7037 120.257 23.3694C120.455 22.7055 120.694 22.534 120.694 23.0557C120.694 23.1938 120.746 23.3914 120.809 23.4949C120.872 23.5985 121.033 24.2479 121.168 24.9381C121.303 25.6284 121.495 26.6166 121.596 27.1343C121.878 28.5867 122.14 30.6668 122.14 31.4569C122.14 32.3705 122.255 32.588 122.936 32.963C124.299 33.7129 125.016 32.1544 124.521 29.5187C123.963 26.5533 123.726 25.227 123.464 23.6286C123.057 21.137 122.675 19.9732 121.995 19.146C121.406 18.4291 119.668 18.8619 119.543 19.7566C118.995 23.6931 117.65 29.2621 117.463 28.3668C116.968 25.9959 116.129 20.9121 116.128 20.2823C116.128 19.9359 115.626 18.9848 115.355 18.8187C115.045 18.6285 114.629 18.6305 114.272 18.824ZM71.5545 19.2104C71.5081 19.3927 71.4807 20.8125 71.4935 22.3655C71.5289 26.6584 71.3142 25.7694 70.9601 20.1566C70.8997 19.1994 70.9115 19.1282 71.1612 18.9383C71.5017 18.6793 71.6614 18.7897 71.5545 19.2104ZM115.646 20.4517C115.704 20.5725 115.814 21.0666 115.891 21.5498C115.968 22.0329 116.131 22.9497 116.253 23.5869C116.58 25.2956 116.36 25.601 115.98 23.9657C115.239 20.7766 115.098 19.2986 115.646 20.4517ZM66.2692 20.7654C66.805 21.5232 67.2524 24.1815 67.2672 26.6951C67.2886 30.3396 66.4048 32.0493 64.9281 31.2203C64.122 30.7678 63.814 29.8455 64.5178 29.9916C64.8536 30.0612 64.853 30.0681 64.6275 28.5775C64.3166 26.5238 64.466 23.8936 64.9766 22.4282C65.5054 20.9111 65.9593 20.3272 66.2692 20.7654ZM92.0595 21.289C92.8967 21.484 93.0307 21.5713 92.6449 21.671C92.2934 21.7617 91.2475 21.4726 91.1855 21.2674C91.1277 21.0764 91.1488 21.077 92.0595 21.289ZM35.6503 22.4596C35.978 24.7714 35.9836 24.7444 35.1718 24.748C34.5781 24.7505 34.5577 24.6156 34.9224 23.0991C35.3681 21.2458 35.466 21.1597 35.6503 22.4596ZM85.6174 23.3387C85.756 24.6887 85.7318 24.7448 85.0081 24.748C84.4275 24.7507 84.4227 24.7218 84.7587 23.2343C85.2296 21.1491 85.3945 21.1691 85.6174 23.3387ZM65.3864 22.1877C65.392 22.3339 65.4194 22.3636 65.4563 22.2636C65.4897 22.173 65.4855 22.0647 65.4471 22.023C65.4088 21.9813 65.3815 22.0554 65.3864 22.1877ZM44.7382 23.1664C47.2588 25.0784 50.5381 29.5152 50.0519 30.3555C49.6118 31.1162 46.7985 31.0451 44.9967 30.2278C44.5069 30.0056 44.5429 30.1255 44.1104 27.2825C43.918 26.0182 43.6585 24.4416 43.5339 23.7788C43.2379 22.2057 43.3778 22.1344 44.7382 23.1664ZM40.869 24.6244C40.869 24.7164 40.9037 24.754 40.9461 24.7081C40.9884 24.6621 40.9884 24.5868 40.9461 24.5407C40.9037 24.4948 40.869 24.5324 40.869 24.6244ZM34.2471 28.6505C34.141 29.0935 34.0294 29.6536 33.9991 29.8952C33.8449 31.127 33.8189 31.6522 33.9122 31.6522C33.969 31.6522 34.0488 31.3047 34.0897 30.8799C34.1306 30.4551 34.2466 29.6652 34.3476 29.1247C34.5766 27.8976 34.5065 27.567 34.2471 28.6505ZM84.0756 28.8675C83.9104 29.6731 83.669 32.1093 83.8122 31.5267C83.9173 31.099 84.3547 27.9907 84.3158 27.9484C84.2925 27.9232 84.1845 28.3367 84.0756 28.8675ZM75.8396 33.0849L74.4523 33.2288L76.7953 33.2311C78.3826 33.2329 79.1253 33.1911 79.0982 33.1018C79.0426 32.9193 77.5135 32.9114 75.8396 33.0849ZM73.7009 33.3463C73.7009 33.3809 73.7269 33.4091 73.7587 33.4091C73.7905 33.4091 73.8165 33.3809 73.8165 33.3463C73.8165 33.3118 73.7905 33.2836 73.7587 33.2836C73.7269 33.2836 73.7009 33.3118 73.7009 33.3463Z" fill="#D1C12B"/>
</g>
<path fill-rule="evenodd" clip-rule="evenodd" d="M7.45168 3.59863C4.99518 4.15959 4.75218 5.82404 6.70024 8.74508C6.92279 9.07877 7.15689 9.40079 7.22047 9.46053C7.39769 9.62718 8.18485 10.2554 8.95455 10.8446C9.64853 11.3758 12.0122 12.6988 12.2804 12.7062C12.3587 12.7084 12.6828 12.849 13.0007 13.0188C13.3187 13.1886 13.6489 13.328 13.7347 13.3287C13.8205 13.3293 14.0546 13.4077 14.2549 13.5031C14.4553 13.5984 14.973 13.7965 15.4052 13.9435C17.469 14.6447 17.1054 15.9785 14.9883 15.473C14.7218 15.4093 14.0354 15.2634 13.4632 15.1487C12.8909 15.034 12.3187 14.8901 12.1915 14.8287C10.7558 14.1356 7.8563 13.3483 7.8563 13.6515C7.8563 14.1039 9.33362 16.4754 10.0101 17.1089C10.803 17.8513 12.9081 19.2281 13.2506 19.2281C13.3323 19.2281 13.6217 19.3346 13.8936 19.4649C14.7108 19.8563 15.5194 20.1078 15.9583 20.1072C17.4036 20.1051 18.1673 20.6094 17.7543 21.2936C17.5216 21.6791 14.8992 21.7745 13.8021 21.4373C12.432 21.0162 11.7025 21.0761 12.0002 21.5854C12.1179 21.7866 14.69 23.6173 14.8576 23.6192C14.9251 23.6198 15.2112 23.7442 15.4934 23.8953C16.6042 24.4904 20.8091 24.7735 22.7116 24.3813C24.9244 23.9251 25.0613 23.892 25.2974 23.7548C25.4246 23.6809 25.6611 23.6204 25.8229 23.6204C27.3382 23.6204 30.3504 21.8215 32.1089 19.8662C33.6223 18.1835 33.6798 17.9024 32.7138 16.9064C32.5128 16.6994 32.2626 16.3323 32.1574 16.0907C31.9052 15.5113 28.7273 12.0648 27.6248 11.175C26.523 10.2858 24.5993 8.87421 24.0549 8.55533C23.8247 8.42042 23.3243 8.11283 22.9428 7.87163C22.5613 7.6303 21.963 7.2882 21.6133 7.11137C21.2636 6.93443 20.8735 6.73602 20.7463 6.67051C20.3295 6.45554 18.5656 5.78689 17.7984 5.5531C17.3851 5.4271 16.9169 5.26684 16.7579 5.19694C16.599 5.12704 16.1828 4.98573 15.8331 4.88283C14.1773 4.3959 13.7848 4.27731 13.4549 4.16449C13.2597 4.09773 12.9572 4.04313 12.7826 4.04313C12.6081 4.04313 12.3517 3.97549 12.2128 3.89292C11.5723 3.51166 8.62889 3.32982 7.45168 3.59863ZM36.9026 18.1943C36.3097 18.7955 35.4782 20.9555 35.0173 23.092C34.766 24.2568 34.7103 24.3906 34.4476 24.4589C32.6958 24.914 32.1445 26.6902 33.5122 27.4719C33.7937 27.6328 34.0418 27.7836 34.0635 27.8071C34.0851 27.8307 34.0193 28.2677 33.9171 28.7784C33.2553 32.0884 33.4432 33.2836 34.6256 33.2836C35.327 33.2836 35.6536 32.8297 35.8161 31.6289C36.2095 28.7242 36.5391 27.3873 36.8032 27.6252C36.9021 27.7145 36.9856 27.7151 37.0666 27.6271C37.1318 27.5564 37.5391 27.5153 37.9722 27.536L38.7593 27.5735L39.067 28.8913C39.8552 32.2668 40.3783 33.4091 41.1365 33.4091C41.7312 33.4091 41.9275 32.7816 41.7294 31.5142C41.6602 31.0725 41.5524 30.3721 41.4895 29.958C41.4266 29.5438 41.2912 28.822 41.1886 28.3538C41.0074 27.5277 41.0088 27.4942 41.2353 27.2243C42.01 26.3004 41.8341 25.1915 40.835 24.7025C40.303 24.4421 40.237 24.1892 40.2124 22.3165C40.205 21.7568 40.174 21.4117 40.1434 21.5498C39.9586 22.3834 39.826 22.0243 39.6656 20.256C39.5586 19.0776 39.2946 18.4751 38.885 18.4751C38.8056 18.4751 38.586 18.3339 38.3971 18.1614C37.9226 17.7279 37.3501 17.7405 36.9026 18.1943ZM86.9041 18.0665C86.3069 18.4686 85.7639 19.7696 85.0356 22.5432L84.544 24.4151L84.0282 24.5783C82.4279 25.0848 82.1519 27.6363 83.6974 27.6363C83.9869 27.6363 83.9861 27.8843 83.6917 29.2677C83.5669 29.8544 83.4306 30.8248 83.3889 31.424L83.3131 32.5136L83.6677 32.8986C84.5735 33.8818 85.4232 33.2601 85.7145 31.4012C86.2408 28.0419 86.3952 27.4145 86.6413 27.6363C86.747 27.7315 86.8173 27.7334 86.8691 27.6424C86.9604 27.4819 88.5093 27.4654 88.5996 27.624C88.6351 27.6861 88.8433 28.5096 89.0623 29.4538C89.8161 32.7024 90.8026 34.1961 91.4902 33.1301C91.7729 32.692 91.5622 30.6522 90.9706 28.1023C90.8405 27.5412 90.8481 27.5055 91.1953 27.0484C91.8273 26.2161 91.5565 25.0532 90.6398 24.6623C90.17 24.462 90.0517 24.0215 90.0517 22.4725C90.0517 22.1264 90.0024 21.989 89.8783 21.989C89.7829 21.989 89.7049 21.9348 89.7049 21.8684C89.7049 20.1836 89.3308 18.6875 88.8699 18.5293C88.725 18.4796 88.4457 18.306 88.2489 18.1433C87.8299 17.7969 87.3456 17.7693 86.9041 18.0665ZM60.6512 18.055C60.6078 18.102 60.5723 18.597 60.5722 19.1549C60.572 21.9158 60.131 24.8371 59.3239 27.4227C58.9221 28.7104 58.8395 28.6055 58.5043 26.3813C58.3639 25.4495 58.1759 24.3201 58.0868 23.8714C57.2524 19.6755 57.0635 19.1219 56.2772 18.5692C54.9298 17.622 54.4978 18.9624 55.1323 22.122C55.6903 24.9011 56.1605 28.058 56.2455 29.5957C56.3075 30.7196 56.3679 31.0399 56.5853 31.4012C56.7309 31.6427 56.8871 31.9816 56.9325 32.1541C57.7256 35.1645 61.9302 30.1166 63.0478 24.8126C63.9244 20.6518 63.5785 18.3211 62.0594 18.1522L61.3021 18.068L61.2219 20.0197C61.1074 22.8099 60.7985 24.6929 60.0859 26.9461C59.714 28.1221 59.1862 29.1937 59.0512 29.0471C58.9735 28.9628 59.0104 28.7607 59.163 28.4356C60.3128 25.9855 61.5968 17.0283 60.6512 18.055ZM101.208 18.3004C100.127 18.3934 98.246 18.4849 97.0284 18.5037C95.8107 18.5224 94.8743 18.5794 94.9475 18.6301C95.0207 18.6808 95.3506 18.7231 95.6806 18.7242C96.0107 18.7252 96.3181 18.7917 96.3639 18.8721C96.4264 18.9819 96.0166 18.9978 94.7082 18.9363C91.979 18.8081 91.6031 19.4509 93.2627 21.4083C93.6527 21.8684 94.2287 22.0278 95.7741 22.1036L97.277 22.1772L97.2612 22.6165C97.078 27.7053 97.0805 31.4248 97.2676 31.9565C97.7549 33.3418 99.0096 33.3566 99.2475 31.9799C99.3499 31.3872 99.5291 31.3979 99.5394 31.9973C99.546 32.3748 99.5673 32.4182 99.6469 32.2169C99.7016 32.0788 99.7499 29.6928 99.7544 26.9147C99.7588 24.1366 99.7957 21.8635 99.8362 21.8635C100.139 21.8635 102.894 21.3211 103.155 21.2102C103.36 21.1231 103.549 20.9008 103.659 20.6198C103.755 20.3721 103.942 19.9346 104.073 19.6479C104.303 19.1464 104.304 19.1135 104.109 18.7906C103.998 18.606 103.935 18.3747 103.97 18.2767C104.045 18.0634 103.951 18.0642 101.208 18.3004ZM43.7518 18.5236C43.5609 18.6138 43.3335 18.781 43.2462 18.8952C43.159 19.0092 43.0217 19.1026 42.9411 19.1026C42.8607 19.1026 42.6785 19.2049 42.5363 19.3297L42.2778 19.557L42.4824 20.5847C42.6056 21.204 42.7444 21.6125 42.8313 21.6125C43.0233 21.6125 43.0654 21.743 43.5807 23.9342C43.8241 24.9695 44.1833 26.4909 44.3789 27.3149C44.7961 29.0735 44.7746 28.8913 44.565 28.8913C44.3278 28.8913 44.2351 28.6367 43.9254 27.1343C43.776 26.4096 43.6127 25.765 43.5624 25.7019C43.4486 25.559 43.5455 26.3198 43.7735 27.3586C43.9825 28.311 43.929 28.5578 43.5477 28.4004C41.6769 27.6283 41.5608 30.1615 43.4238 31.1065C44.3529 31.5779 44.5434 31.7261 44.6814 32.0847C45.0347 33.0025 46.0376 33.3017 46.8422 32.7293C47.0828 32.5581 47.1702 32.5586 47.6855 32.7341C53.7276 34.7903 56.0193 30.1748 51.7178 24.6132C48.1394 19.9867 45.2797 17.8006 43.7518 18.5236ZM67.8135 18.659C67.308 18.8546 66.7599 19.3733 66.5102 19.8923C66.4175 20.0851 66.2251 20.2909 66.0828 20.3496C64.5111 20.9983 63.8168 28.0356 65.0448 30.8706C66.4858 34.1972 70.2715 33.6425 71.4473 29.9322C72.3264 27.1589 71.5291 19.9937 70.2873 19.5063C70.1897 19.468 69.9227 19.2203 69.6941 18.9559C69.2252 18.4138 68.6727 18.3264 67.8135 18.659ZM73.5481 18.6049C73.0764 18.8107 73.016 19.1829 73.1576 21.0077C73.498 25.3962 73.6512 27.1265 73.7546 27.7535C73.8163 28.1285 73.867 29.393 73.867 30.5632C73.867 33.2458 73.9016 33.2886 75.7166 32.8427C77.0803 32.5078 79.2205 32.2719 80.6775 32.2959C82.4831 32.3258 82.8069 32.0775 82.371 30.9976C82.2795 30.7709 82.1776 30.4436 82.1445 30.2704C82.002 29.5232 79.9362 29.2582 77.6819 29.6978C76.5513 29.9182 76.6488 30.2041 76.3948 25.9225C76.2726 23.8626 76.1017 21.669 76.0151 21.0478L75.8576 19.9183L75.845 20.7728C75.8314 21.6842 75.6606 21.8186 75.5407 21.012C75.4614 20.4779 75.2592 19.391 75.1815 19.0813C75.0875 18.7068 74.0249 18.3969 73.5481 18.6049ZM106.359 18.6917C104.512 19.4821 104.195 29.3341 105.996 29.9547C106.13 30.0008 106.442 30.3634 106.691 30.7605C109.059 34.5461 112.942 33.2818 114.094 28.3502C114.827 25.2103 114.602 19.6397 113.712 18.9264L113.384 18.6634L113.13 19.0085C112.973 19.2208 112.763 19.3536 112.583 19.3536C111.838 19.3536 111.786 19.5716 111.78 22.7155C111.766 29.0972 111.149 30.783 109.307 29.4723C108.93 29.2042 108.254 26.6597 108.086 24.8754L107.985 23.8087L108.022 25.2361C108.043 26.0302 108.017 26.5884 107.963 26.4943C107.536 25.7431 107.504 21.3692 107.924 21.0005C108.991 20.063 107.679 18.127 106.359 18.6917ZM116.635 18.824C116.084 19.1222 115.941 19.6318 115.976 21.1621C115.997 22.0683 115.966 22.4203 115.861 22.459C115.752 22.4986 115.713 22.218 115.705 21.3406C115.692 20.0319 115.578 19.3847 115.429 19.7673C115.285 20.1338 115.459 29.4231 115.637 30.923C115.833 32.5739 115.983 32.8599 116.717 32.9794C117.703 33.1399 117.722 33.0644 117.652 29.231C117.586 25.6033 117.648 25.3736 118.145 27.3897C119.52 32.9641 119.509 32.9325 120.139 32.8829L120.629 32.8444L120.874 31.9659C121.292 30.4651 121.659 28.6004 121.64 28.0755C121.622 27.5789 122.22 24.7037 122.619 23.3694C122.818 22.7055 123.057 22.534 123.057 23.0557C123.057 23.1938 123.108 23.3914 123.171 23.4949C123.234 23.5985 123.396 24.2479 123.531 24.9381C123.665 25.6284 123.858 26.6166 123.959 27.1343C124.24 28.5867 124.502 30.6668 124.502 31.4569C124.502 32.3705 124.617 32.588 125.299 32.963C126.662 33.7129 127.379 32.1544 126.884 29.5187C126.326 26.5533 126.088 25.227 125.827 23.6286C125.419 21.137 125.038 19.9732 124.358 19.146C123.769 18.4291 122.03 18.8619 121.906 19.7566C121.358 23.6931 120.012 29.2621 119.826 28.3668C119.331 25.9959 118.492 20.9121 118.491 20.2823C118.491 19.9359 117.988 18.9848 117.718 18.8187C117.408 18.6285 116.992 18.6305 116.635 18.824ZM73.917 19.2104C73.8706 19.3927 73.8432 20.8125 73.8561 22.3655C73.8914 26.6584 73.6768 25.7694 73.3227 20.1566C73.2622 19.1994 73.274 19.1282 73.5237 18.9383C73.8643 18.6793 74.0239 18.7897 73.917 19.2104ZM118.009 20.4517C118.066 20.5725 118.176 21.0666 118.253 21.5498C118.33 22.0329 118.493 22.9497 118.615 23.5869C118.943 25.2956 118.723 25.601 118.343 23.9657C117.601 20.7766 117.461 19.2986 118.009 20.4517ZM68.6318 20.7654C69.1676 21.5232 69.615 24.1815 69.6298 26.6951C69.6512 30.3396 68.7674 32.0493 67.2906 31.2203C66.4845 30.7678 66.1765 29.8455 66.8803 29.9916C67.2162 30.0612 67.2156 30.0681 66.99 28.5775C66.6792 26.5238 66.8285 23.8936 67.3392 22.4282C67.868 20.9111 68.3218 20.3272 68.6318 20.7654ZM94.422 21.289C95.2593 21.484 95.3932 21.5713 95.0075 21.671C94.6559 21.7617 93.61 21.4726 93.5481 21.2674C93.4902 21.0764 93.5113 21.077 94.422 21.289ZM38.0129 22.4596C38.3405 24.7714 38.3462 24.7444 37.5344 24.748C36.9406 24.7505 36.9203 24.6156 37.2849 23.0991C37.7307 21.2458 37.8286 21.1597 38.0129 22.4596ZM87.9799 23.3387C88.1185 24.6887 88.0944 24.7448 87.3707 24.748C86.79 24.7507 86.7853 24.7218 87.1212 23.2343C87.5922 21.1491 87.757 21.1691 87.9799 23.3387ZM67.749 22.1877C67.7545 22.3339 67.7819 22.3636 67.8188 22.2636C67.8522 22.173 67.8481 22.0647 67.8097 22.023C67.7713 21.9813 67.744 22.0554 67.749 22.1877ZM47.1007 23.1664C49.6214 25.0784 52.9007 29.5152 52.4144 30.3555C51.9743 31.1162 49.161 31.0451 47.3592 30.2278C46.8694 30.0056 46.9055 30.1255 46.473 27.2825C46.2805 26.0182 46.0211 24.4416 45.8965 23.7788C45.6004 22.2057 45.7404 22.1344 47.1007 23.1664ZM43.2315 24.6244C43.2315 24.7164 43.2662 24.754 43.3086 24.7081C43.351 24.6621 43.351 24.5868 43.3086 24.5407C43.2662 24.4948 43.2315 24.5324 43.2315 24.6244ZM36.6097 28.6505C36.5035 29.0935 36.392 29.6536 36.3617 29.8952C36.2075 31.127 36.1815 31.6522 36.2747 31.6522C36.3315 31.6522 36.4114 31.3047 36.4522 30.8799C36.4931 30.4551 36.6092 29.6652 36.7101 29.1247C36.9391 27.8976 36.8691 27.567 36.6097 28.6505ZM86.4381 28.8675C86.2729 29.6731 86.0315 32.1093 86.1748 31.5267C86.2798 31.099 86.7173 27.9907 86.6783 27.9484C86.6551 27.9232 86.547 28.3367 86.4381 28.8675ZM78.2021 33.0849L76.8149 33.2288L79.1579 33.2311C80.7451 33.2329 81.4879 33.1911 81.4607 33.1018C81.4051 32.9193 79.876 32.9114 78.2021 33.0849ZM76.0634 33.3463C76.0634 33.3809 76.0895 33.4091 76.1212 33.4091C76.153 33.4091 76.1791 33.3809 76.1791 33.3463C76.1791 33.3118 76.153 33.2836 76.1212 33.2836C76.0895 33.2836 76.0634 33.3118 76.0634 33.3463Z" fill="#A332CA"/>
<path fill-rule="evenodd" clip-rule="evenodd" d="M6.2704 3.59863C3.81391 4.15959 3.5709 5.82404 5.51897 8.74508C5.74151 9.07877 5.97561 9.40079 6.03919 9.46053C6.21642 9.62718 7.00357 10.2554 7.77327 10.8446C8.46725 11.3758 10.8309 12.6988 11.0991 12.7062C11.1774 12.7084 11.5015 12.849 11.8195 13.0188C12.1374 13.1886 12.4677 13.328 12.5534 13.3287C12.6392 13.3293 12.8733 13.4077 13.0737 13.5031C13.274 13.5984 13.7917 13.7965 14.2239 13.9435C16.2877 14.6447 15.9241 15.9785 13.8071 15.473C13.5405 15.4093 12.8541 15.2634 12.2819 15.1487C11.7096 15.034 11.1374 14.8901 11.0102 14.8287C9.57452 14.1356 6.67502 13.3483 6.67502 13.6515C6.67502 14.1039 8.15234 16.4754 8.82887 17.1089C9.62169 17.8513 11.7269 19.2281 12.0693 19.2281C12.151 19.2281 12.4404 19.3346 12.7123 19.4649C13.5295 19.8563 14.3382 20.1078 14.777 20.1072C16.2223 20.1051 16.986 20.6094 16.573 21.2936C16.3403 21.6791 13.7179 21.7745 12.6208 21.4373C11.2507 21.0162 10.5212 21.0761 10.8189 21.5854C10.9366 21.7866 13.5087 23.6173 13.6763 23.6192C13.7438 23.6198 14.0299 23.7442 14.3121 23.8953C15.4229 24.4904 19.6278 24.7735 21.5303 24.3813C23.7431 23.9251 23.88 23.892 24.1162 23.7548C24.2433 23.6809 24.4799 23.6204 24.6416 23.6204C26.1569 23.6204 29.1692 21.8215 30.9276 19.8662C32.441 18.1835 32.4985 17.9024 31.5325 16.9064C31.3316 16.6994 31.0813 16.3323 30.9761 16.0907C30.7239 15.5113 27.5461 12.0648 26.4435 11.175C25.3417 10.2858 23.418 8.87421 22.8736 8.55533C22.6435 8.42042 22.143 8.11283 21.7615 7.87163C21.38 7.6303 20.7818 7.2882 20.4321 7.11137C20.0824 6.93443 19.6922 6.73602 19.565 6.67051C19.1483 6.45554 17.3844 5.78689 16.6171 5.5531C16.2038 5.4271 15.7356 5.26684 15.5766 5.19694C15.4177 5.12704 15.0015 4.98573 14.6518 4.88283C12.996 4.3959 12.6035 4.27731 12.2737 4.16449C12.0784 4.09773 11.7759 4.04313 11.6013 4.04313C11.4269 4.04313 11.1705 3.97549 11.0315 3.89292C10.391 3.51166 7.44761 3.32982 6.2704 3.59863ZM35.7213 18.1943C35.1284 18.7955 34.297 20.9555 33.836 23.092C33.5847 24.2568 33.529 24.3906 33.2663 24.4589C31.5146 24.914 30.9632 26.6902 32.331 27.4719C32.6125 27.6328 32.8606 27.7836 32.8822 27.8071C32.9038 27.8307 32.838 28.2677 32.7358 28.7784C32.074 32.0884 32.262 33.2836 33.4444 33.2836C34.1457 33.2836 34.4723 32.8297 34.6349 31.6289C35.0283 28.7242 35.3579 27.3873 35.6219 27.6252C35.7209 27.7145 35.8043 27.7151 35.8854 27.6271C35.9506 27.5564 36.3578 27.5153 36.7909 27.536L37.5781 27.5735L37.8857 28.8913C38.6739 32.2668 39.197 33.4091 39.9553 33.4091C40.5499 33.4091 40.7462 32.7816 40.5481 31.5142C40.4789 31.0725 40.3711 30.3721 40.3082 29.958C40.2453 29.5438 40.1099 28.822 40.0073 28.3538C39.8261 27.5277 39.8275 27.4942 40.054 27.2243C40.8288 26.3004 40.6528 25.1915 39.6538 24.7025C39.1217 24.4421 39.0557 24.1892 39.0311 22.3165C39.0237 21.7568 38.9927 21.4117 38.9621 21.5498C38.7774 22.3834 38.6448 22.0243 38.4843 20.256C38.3774 19.0776 38.1133 18.4751 37.7037 18.4751C37.6243 18.4751 37.4048 18.3339 37.2159 18.1614C36.7413 17.7279 36.1688 17.7405 35.7213 18.1943ZM85.7228 18.0665C85.1256 18.4686 84.5826 19.7696 83.8543 22.5432L83.3627 24.4151L82.8469 24.5783C81.2466 25.0848 80.9706 27.6363 82.5162 27.6363C82.8056 27.6363 82.8048 27.8843 82.5104 29.2677C82.3856 29.8544 82.2494 30.8248 82.2076 31.424L82.1318 32.5136L82.4865 32.8986C83.3922 33.8818 84.2419 33.2601 84.5332 31.4012C85.0595 28.0419 85.2139 27.4145 85.4601 27.6363C85.5657 27.7315 85.636 27.7334 85.6878 27.6424C85.7791 27.4819 87.328 27.4654 87.4183 27.624C87.4538 27.6861 87.662 28.5096 87.8811 29.4538C88.6348 32.7024 89.6213 34.1961 90.3089 33.1301C90.5917 32.692 90.3809 30.6522 89.7894 28.1023C89.6592 27.5412 89.6668 27.5055 90.014 27.0484C90.646 26.2161 90.3752 25.0532 89.4585 24.6623C88.9887 24.462 88.8704 24.0215 88.8704 22.4725C88.8704 22.1264 88.8212 21.989 88.697 21.989C88.6016 21.989 88.5236 21.9348 88.5236 21.8684C88.5236 20.1836 88.1495 18.6875 87.6886 18.5293C87.5437 18.4796 87.2644 18.306 87.0677 18.1433C86.6486 17.7969 86.1643 17.7693 85.7228 18.0665ZM59.4699 18.055C59.4265 18.102 59.3911 18.597 59.3909 19.1549C59.3907 21.9158 58.9497 24.8371 58.1426 27.4227C57.7408 28.7104 57.6582 28.6055 57.323 26.3813C57.1826 25.4495 56.9947 24.3201 56.9055 23.8714C56.0711 19.6755 55.8822 19.1219 55.096 18.5692C53.7485 17.622 53.3166 18.9624 53.951 22.122C54.509 24.9011 54.9792 28.058 55.0642 29.5957C55.1263 30.7196 55.1866 31.0399 55.4041 31.4012C55.5496 31.6427 55.7058 31.9816 55.7512 32.1541C56.5443 35.1645 60.749 30.1166 61.8665 24.8126C62.7431 20.6518 62.3972 18.3211 60.8781 18.1522L60.1209 18.068L60.0406 20.0197C59.9261 22.8099 59.6172 24.6929 58.9046 26.9461C58.5327 28.1221 58.0049 29.1937 57.8699 29.0471C57.7922 28.9628 57.8291 28.7607 57.9817 28.4356C59.1315 25.9855 60.4156 17.0283 59.4699 18.055ZM100.026 18.3004C98.9454 18.3934 97.0648 18.4849 95.8471 18.5037C94.6294 18.5224 93.693 18.5794 93.7662 18.6301C93.8394 18.6808 94.1693 18.7231 94.4994 18.7242C94.8294 18.7252 95.1368 18.7917 95.1826 18.8721C95.2451 18.9819 94.8353 18.9978 93.5269 18.9363C90.7977 18.8081 90.4218 19.4509 92.0815 21.4083C92.4714 21.8684 93.0475 22.0278 94.5929 22.1036L96.0957 22.1772L96.0799 22.6165C95.8967 27.7053 95.8992 31.4248 96.0863 31.9565C96.5737 33.3418 97.8283 33.3566 98.0662 31.9799C98.1687 31.3872 98.3479 31.3979 98.3581 31.9973C98.3647 32.3748 98.386 32.4182 98.4657 32.2169C98.5203 32.0788 98.5687 29.6928 98.5732 26.9147C98.5776 24.1366 98.6144 21.8635 98.6549 21.8635C98.9573 21.8635 101.712 21.3211 101.973 21.2102C102.178 21.1231 102.368 20.9008 102.478 20.6198C102.574 20.3721 102.761 19.9346 102.892 19.6479C103.122 19.1464 103.123 19.1135 102.928 18.7906C102.817 18.606 102.754 18.3747 102.788 18.2767C102.864 18.0634 102.77 18.0642 100.026 18.3004ZM42.5705 18.5236C42.3796 18.6138 42.1522 18.781 42.0649 18.8952C41.9778 19.0092 41.8404 19.1026 41.7599 19.1026C41.6794 19.1026 41.4972 19.2049 41.355 19.3297L41.0965 19.557L41.3011 20.5847C41.4244 21.204 41.5631 21.6125 41.65 21.6125C41.842 21.6125 41.8841 21.743 42.3994 23.9342C42.6428 24.9695 43.002 26.4909 43.1976 27.3149C43.6149 29.0735 43.5934 28.8913 43.3838 28.8913C43.1465 28.8913 43.0538 28.6367 42.7441 27.1343C42.5948 26.4096 42.4314 25.765 42.3811 25.7019C42.2674 25.559 42.3642 26.3198 42.5922 27.3586C42.8012 28.311 42.7477 28.5578 42.3664 28.4004C40.4956 27.6283 40.3795 30.1615 42.2425 31.1065C43.1716 31.5779 43.3621 31.7261 43.5002 32.0847C43.8535 33.0025 44.8563 33.3017 45.661 32.7293C45.9015 32.5581 45.9889 32.5586 46.5042 32.7341C52.5463 34.7903 54.8381 30.1748 50.5365 24.6132C46.9582 19.9867 44.0984 17.8006 42.5705 18.5236ZM66.6322 18.659C66.1267 18.8546 65.5786 19.3733 65.3289 19.8923C65.2362 20.0851 65.0438 20.2909 64.9015 20.3496C63.3298 20.9983 62.6355 28.0356 63.8635 30.8706C65.3045 34.1972 69.0902 33.6425 70.266 29.9322C71.1451 27.1589 70.3478 19.9937 69.1061 19.5063C69.0084 19.468 68.7414 19.2203 68.5128 18.9559C68.0439 18.4138 67.4914 18.3264 66.6322 18.659ZM72.3668 18.6049C71.8952 18.8107 71.8347 19.1829 71.9763 21.0077C72.3168 25.3962 72.4699 27.1265 72.5733 27.7535C72.635 28.1285 72.6857 29.393 72.6857 30.5632C72.6857 33.2458 72.7203 33.2886 74.5353 32.8427C75.899 32.5078 78.0392 32.2719 79.4962 32.2959C81.3018 32.3258 81.6257 32.0775 81.1897 30.9976C81.0983 30.7709 80.9963 30.4436 80.9632 30.2704C80.8207 29.5232 78.7549 29.2582 76.5006 29.6978C75.37 29.9182 75.4675 30.2041 75.2135 25.9225C75.0913 23.8626 74.9204 21.669 74.8338 21.0478L74.6763 19.9183L74.6637 20.7728C74.6501 21.6842 74.4793 21.8186 74.3594 21.012C74.2801 20.4779 74.0779 19.391 74.0002 19.0813C73.9062 18.7068 72.8436 18.3969 72.3668 18.6049ZM105.178 18.6917C103.331 19.4821 103.013 29.3341 104.815 29.9547C104.948 30.0008 105.261 30.3634 105.509 30.7605C107.878 34.5461 111.761 33.2818 112.913 28.3502C113.646 25.2103 113.42 19.6397 112.531 18.9264L112.203 18.6634L111.948 19.0085C111.792 19.2208 111.582 19.3536 111.402 19.3536C110.657 19.3536 110.605 19.5716 110.598 22.7155C110.585 29.0972 109.968 30.783 108.125 29.4723C107.748 29.2042 107.073 26.6597 106.904 24.8754L106.804 23.8087L106.841 25.2361C106.862 26.0302 106.836 26.5884 106.782 26.4943C106.354 25.7431 106.323 21.3692 106.743 21.0005C107.81 20.063 106.497 18.127 105.178 18.6917ZM115.453 18.824C114.903 19.1222 114.76 19.6318 114.795 21.1621C114.816 22.0683 114.785 22.4203 114.679 22.459C114.571 22.4986 114.532 22.218 114.523 21.3406C114.51 20.0319 114.397 19.3847 114.247 19.7673C114.104 20.1338 114.277 29.4231 114.455 30.923C114.651 32.5739 114.802 32.8599 115.536 32.9794C116.522 33.1399 116.541 33.0644 116.471 29.231C116.405 25.6033 116.467 25.3736 116.964 27.3897C118.339 32.9641 118.327 32.9325 118.957 32.8829L119.448 32.8444L119.693 31.9659C120.11 30.4651 120.477 28.6004 120.459 28.0755C120.441 27.5789 121.039 24.7037 121.438 23.3694C121.637 22.7055 121.876 22.534 121.876 23.0557C121.876 23.1938 121.927 23.3914 121.99 23.4949C122.053 23.5985 122.215 24.2479 122.349 24.9381C122.484 25.6284 122.677 26.6166 122.777 27.1343C123.059 28.5867 123.321 30.6668 123.321 31.4569C123.321 32.3705 123.436 32.588 124.118 32.963C125.481 33.7129 126.198 32.1544 125.702 29.5187C125.145 26.5533 124.907 25.227 124.645 23.6286C124.238 21.137 123.857 19.9732 123.177 19.146C122.587 18.4291 120.849 18.8619 120.724 19.7566C120.177 23.6931 118.831 29.2621 118.644 28.3668C118.149 25.9959 117.31 20.9121 117.31 20.2823C117.309 19.9359 116.807 18.9848 116.537 18.8187C116.227 18.6285 115.811 18.6305 115.453 18.824ZM72.7357 19.2104C72.6894 19.3927 72.662 20.8125 72.6748 22.3655C72.7102 26.6584 72.4955 25.7694 72.1414 20.1566C72.0809 19.1994 72.0927 19.1282 72.3424 18.9383C72.683 18.6793 72.8427 18.7897 72.7357 19.2104ZM116.827 20.4517C116.885 20.5725 116.995 21.0666 117.072 21.5498C117.149 22.0329 117.312 22.9497 117.434 23.5869C117.761 25.2956 117.541 25.601 117.161 23.9657C116.42 20.7766 116.28 19.2986 116.827 20.4517ZM67.4505 20.7654C67.9863 21.5232 68.4337 24.1815 68.4485 26.6951C68.4699 30.3396 67.5861 32.0493 66.1093 31.2203C65.3032 30.7678 64.9953 29.8455 65.6991 29.9916C66.0349 30.0612 66.0343 30.0681 65.8088 28.5775C65.4979 26.5238 65.6473 23.8936 66.1579 22.4282C66.6867 20.9111 67.1405 20.3272 67.4505 20.7654ZM93.2408 21.289C94.078 21.484 94.212 21.5713 93.8262 21.671C93.4746 21.7617 92.4287 21.4726 92.3668 21.2674C92.309 21.0764 92.33 21.077 93.2408 21.289ZM36.8316 22.4596C37.1592 24.7714 37.1649 24.7444 36.3531 24.748C35.7594 24.7505 35.739 24.6156 36.1036 23.0991C36.5494 21.2458 36.6473 21.1597 36.8316 22.4596ZM86.7987 23.3387C86.9373 24.6887 86.9131 24.7448 86.1894 24.748C85.6087 24.7507 85.604 24.7218 85.9399 23.2343C86.4109 21.1491 86.5758 21.1691 86.7987 23.3387ZM66.5677 22.1877C66.5733 22.3339 66.6007 22.3636 66.6375 22.2636C66.6709 22.173 66.6668 22.0647 66.6284 22.023C66.59 21.9813 66.5627 22.0554 66.5677 22.1877ZM45.9194 23.1664C48.4401 25.0784 51.7194 29.5152 51.2331 30.3555C50.793 31.1162 47.9798 31.0451 46.1779 30.2278C45.6881 30.0056 45.7242 30.1255 45.2917 27.2825C45.0992 26.0182 44.8398 24.4416 44.7152 23.7788C44.4191 22.2057 44.5591 22.1344 45.9194 23.1664ZM42.0503 24.6244C42.0503 24.7164 42.0849 24.754 42.1274 24.7081C42.1697 24.6621 42.1697 24.5868 42.1274 24.5407C42.0849 24.4948 42.0503 24.5324 42.0503 24.6244ZM35.4284 28.6505C35.3223 29.0935 35.2107 29.6536 35.1804 29.8952C35.0262 31.127 35.0002 31.6522 35.0935 31.6522C35.1502 31.6522 35.2301 31.3047 35.2709 30.8799C35.3118 30.4551 35.4279 29.6652 35.5288 29.1247C35.7579 27.8976 35.6878 27.567 35.4284 28.6505ZM85.2568 28.8675C85.0916 29.6731 84.8502 32.1093 84.9935 31.5267C85.0986 31.099 85.536 27.9907 85.497 27.9484C85.4738 27.9232 85.3657 28.3367 85.2568 28.8675ZM77.0209 33.0849L75.6336 33.2288L77.9766 33.2311C79.5638 33.2329 80.3066 33.1911 80.2794 33.1018C80.2238 32.9193 78.6947 32.9114 77.0209 33.0849ZM74.8822 33.3463C74.8822 33.3809 74.9082 33.4091 74.94 33.4091C74.9718 33.4091 74.9978 33.3809 74.9978 33.3463C74.9978 33.3118 74.9718 33.2836 74.94 33.2836C74.9082 33.2836 74.8822 33.3118 74.8822 33.3463Z" fill="white"/>
<defs>
<filter id="filter0_d_801_836" x="4.22192" y="3.4707" width="129.637" height="44" filterUnits="userSpaceOnUse" color-interpolation-filters="sRGB">
<feFlood flood-opacity="0" result="BackgroundImageFix"/>
<feColorMatrix in="SourceAlpha" type="matrix" values="0 0 0 0 0 0 0 0 0 0 0 0 0 0 0 0 0 0 127 0" result="hardAlpha"/>
<feOffset dx="4" dy="10"/>
<feGaussianBlur stdDeviation="2"/>
<feComposite in2="hardAlpha" operator="out"/>
<feColorMatrix type="matrix" values="0 0 0 0 0 0 0 0 0 0 0 0 0 0 0 0 0 0 0.37 0"/>
<feBlend mode="normal" in2="BackgroundImageFix" result="effect1_dropShadow_801_836"/>
<feBlend mode="normal" in="SourceGraphic" in2="effect1_dropShadow_801_836" result="shape"/>
</filter>
<filter id="filter1_f_801_836" x="0.0406494" y="0.470703" width="127.637" height="36" filterUnits="userSpaceOnUse" color-interpolation-filters="sRGB">
<feFlood flood-opacity="0" result="BackgroundImageFix"/>
<feBlend mode="normal" in="SourceGraphic" in2="BackgroundImageFix" result="shape"/>
<feGaussianBlur stdDeviation="1.5" result="effect1_foregroundBlur_801_836"/>
</filter>
</defs>
</svg>
